{"glyphs":{"0":{"ha":1146,"x_min":7,"x_max":1440,"o":"m 469 733 q 410 714 442 733 q 364 667 379 694 l 17 67 q 7 33 7 49 q 46 0 7 0 l 979 0 q 1037 19 1006 0 q 1083 67 1068 39 l 1431 667 q 1440 700 1440 685 q 1403 733 1440 733 l 469 733 m 656 133 q 609 86 640 106 q 550 67 578 67 l 550 67 q 513 100 513 67 q 522 133 513 115 l 792 600 q 839 647 808 628 q 897 667 869 667 l 897 667 q 935 633 935 667 q 925 600 935 618 l 656 133 z "},"1":{"ha":528,"x_min":7,"x_max":840,"o":"m 603 733 q 516 700 553 733 q 431 667 479 667 q 372 647 403 667 q 325 600 342 628 l 17 67 q 7 33 7 49 q 46 0 7 0 l 379 0 q 437 19 406 0 q 483 67 468 39 l 831 667 q 840 700 840 685 q 803 733 840 733 l 603 733 z "},"2":{"ha":1104,"x_min":-7,"x_max":1426,"o":"m 1196 400 q 1254 419 1224 400 q 1301 467 1285 439 l 1417 667 q 1426 700 1426 685 q 1389 733 1426 733 l 456 733 q 369 700 389 733 l 311 600 q 301 567 301 582 q 339 533 301 533 l 672 533 q 731 553 700 533 q 778 600 763 572 l 778 600 q 825 647 794 628 q 883 667 856 667 l 883 667 q 921 633 921 667 q 911 600 921 618 l 872 533 q 826 486 857 506 q 768 467 794 467 l 768 467 l 301 467 q 242 447 274 467 q 196 400 211 428 l 3 67 q -7 33 -7 49 q 32 0 -7 0 l 965 0 q 1051 33 1032 0 l 1147 200 q 1157 233 1157 218 q 1119 267 1157 267 l 786 267 q 727 247 758 267 q 681 200 696 228 l 642 133 q 595 86 626 106 q 536 67 564 67 l 536 67 q 499 100 499 67 q 508 133 499 115 l 624 333 q 671 381 640 361 q 729 400 701 400 l 729 400 l 1196 400 z "},"3":{"ha":1118,"x_min":0,"x_max":1433,"o":"m 1242 467 q 1255 467 1242 467 q 1299 486 1268 467 q 1346 533 1331 506 l 1424 667 q 1433 700 1433 685 q 1396 733 1433 733 l 463 733 q 403 714 435 733 q 357 667 372 694 l 318 600 q 308 567 308 582 q 346 533 308 533 l 679 533 q 738 553 707 533 q 785 600 769 572 l 785 600 q 832 647 801 628 q 890 667 863 667 l 890 667 q 928 633 928 667 q 918 600 928 618 l 879 533 q 833 486 864 506 q 775 467 801 467 l 775 467 q 722 457 750 467 q 686 424 686 444 q 736 400 686 400 l 736 400 q 775 367 775 400 q 764 333 775 351 l 649 133 q 602 86 633 106 q 543 67 571 67 l 543 67 q 506 100 506 67 q 515 133 506 115 l 593 267 q 603 300 603 285 q 564 333 603 333 l 231 333 q 172 314 203 333 q 126 267 142 294 l 10 67 q 0 33 0 49 q 39 0 0 0 l 972 0 q 1030 19 999 0 q 1076 67 1061 39 l 1231 333 q 1242 367 1242 351 q 1203 400 1242 400 l 1203 400 q 1153 424 1153 400 q 1189 457 1153 444 q 1242 467 1217 467 z "},"4":{"ha":1118,"x_min":229,"x_max":1432,"o":"m 1060 733 q 1001 714 1032 733 q 956 667 971 694 l 878 533 q 831 486 863 506 q 772 467 800 467 l 772 467 q 735 500 735 467 q 744 533 735 515 l 822 667 q 832 700 832 685 q 793 733 832 733 l 460 733 q 401 714 432 733 q 356 667 371 694 l 239 467 q 229 433 229 449 q 268 400 229 400 l 735 400 q 772 367 772 400 q 763 333 772 351 l 608 67 q 599 33 599 49 q 636 0 599 0 l 969 0 q 1028 19 997 0 q 1075 67 1060 39 l 1422 667 q 1432 700 1432 685 q 1393 733 1432 733 l 1060 733 z "},"5":{"ha":1139,"x_min":0,"x_max":1457,"o":"m 1368 667 q 1421 676 1392 667 q 1457 710 1457 689 q 1407 733 1457 733 l 474 733 q 415 714 446 733 q 368 667 385 694 l 253 467 q 243 433 243 449 q 281 400 243 400 l 747 400 q 786 367 786 400 q 776 333 786 351 l 661 133 q 614 86 644 106 q 556 67 583 67 l 556 67 q 517 100 517 67 q 528 133 517 115 l 565 200 q 576 233 576 218 q 538 267 576 267 l 204 267 q 146 247 176 267 q 99 200 115 228 l 3 33 q 0 24 0 29 q 50 0 0 0 l 983 0 q 1042 19 1011 0 q 1089 67 1072 39 l 1281 400 q 1292 433 1292 418 q 1253 467 1292 467 l 786 467 q 747 500 747 467 q 758 533 747 515 l 797 600 q 843 647 813 628 q 901 667 874 667 l 1368 667 z "},"6":{"ha":1153,"x_min":14,"x_max":1447,"o":"m 1293 533 q 1352 553 1321 533 q 1399 600 1383 572 l 1438 667 q 1447 700 1447 685 q 1410 733 1447 733 l 476 733 q 417 714 449 733 q 371 667 386 694 l 24 67 q 14 33 14 49 q 53 0 14 0 l 986 0 q 1044 19 1013 0 q 1090 67 1075 39 l 1283 400 q 1293 433 1293 418 q 1256 467 1293 467 l 789 467 q 750 500 750 467 q 760 533 750 515 l 799 600 q 846 647 815 628 q 904 667 876 667 l 904 667 q 942 633 942 667 q 932 600 942 618 l 932 600 q 922 567 922 582 q 960 533 922 533 l 1293 533 m 750 400 q 789 367 789 400 q 778 333 789 351 l 663 133 q 616 86 647 106 q 557 67 585 67 l 557 67 q 519 100 519 67 q 529 133 519 115 l 644 333 q 692 381 661 361 q 750 400 722 400 z "},"7":{"ha":1132,"x_min":306,"x_max":1431,"o":"m 460 733 q 401 714 432 733 q 354 667 371 694 l 315 600 q 306 567 306 582 q 344 533 306 533 l 678 533 q 735 553 704 533 q 782 600 767 572 l 782 600 q 829 647 799 628 q 888 667 860 667 l 888 667 q 926 633 926 667 q 915 600 926 618 l 608 67 q 597 33 597 49 q 636 0 597 0 l 969 0 q 1028 19 997 0 q 1075 67 1058 39 l 1421 667 q 1431 700 1431 685 q 1393 733 1431 733 l 460 733 z "},"8":{"ha":1146,"x_min":8,"x_max":1442,"o":"m 1251 467 q 1264 467 1251 467 q 1308 486 1276 467 q 1354 533 1339 506 l 1431 667 q 1442 700 1442 685 q 1403 733 1442 733 l 469 733 q 411 714 442 733 q 364 667 381 694 l 288 533 q 278 500 278 515 q 315 467 278 467 l 315 467 q 365 443 365 467 q 329 410 365 422 q 278 400 301 400 l 278 400 q 219 381 250 400 q 172 333 188 361 l 18 67 q 8 33 8 49 q 46 0 8 0 l 979 0 q 1038 19 1007 0 q 1085 67 1069 39 l 1239 333 q 1249 367 1249 351 q 1211 400 1249 400 l 1211 400 q 1161 424 1161 400 q 1197 457 1161 444 q 1251 467 1225 467 m 657 133 q 610 86 640 106 q 551 67 579 67 l 551 67 q 513 100 513 67 q 524 133 513 115 l 639 333 q 685 381 654 361 q 744 400 717 400 l 744 400 q 782 367 782 400 q 772 333 782 351 l 657 133 m 888 533 q 841 486 872 506 q 782 467 810 467 l 782 467 q 744 500 744 467 q 754 533 744 515 l 793 600 q 840 647 808 628 q 897 667 871 667 l 897 667 q 936 633 936 667 q 926 600 936 618 l 888 533 z "},"9":{"ha":1146,"x_min":14,"x_max":1447,"o":"m 1436 667 q 1447 700 1447 685 q 1408 733 1447 733 l 476 733 q 417 714 449 733 q 371 667 386 694 l 256 467 q 244 433 244 449 q 283 400 244 400 l 749 400 q 788 367 788 400 q 778 333 788 351 l 663 133 q 615 86 646 106 q 557 67 585 67 q 519 100 519 67 q 529 133 519 115 l 607 267 q 617 300 617 285 q 578 333 617 333 l 244 333 q 186 314 217 333 q 140 267 156 294 l 24 67 q 14 33 14 49 q 53 0 14 0 l 985 0 q 1043 19 1013 0 q 1090 67 1074 39 l 1436 667 m 788 467 q 750 500 750 467 q 760 533 750 515 l 799 600 q 846 647 815 628 q 904 667 876 667 q 942 633 942 667 q 932 600 942 618 l 893 533 q 846 486 876 506 q 788 467 815 467 z "}," ":{"ha":674,"x_min":0,"x_max":0,"o":""},"!":{"ha":522,"x_min":4,"x_max":1224,"o":"m 197 267 q 139 247 169 267 q 92 200 108 228 l 15 67 q 4 33 4 49 q 43 0 4 0 l 376 0 q 435 19 404 0 q 482 67 465 39 l 558 200 q 569 233 569 218 q 531 267 569 267 l 197 267 m 607 400 q 666 419 635 400 q 713 467 697 439 l 1213 1333 q 1224 1367 1224 1351 q 1185 1400 1224 1400 l 851 1400 q 793 1381 824 1400 q 746 1333 763 1361 l 246 467 q 236 433 236 449 q 274 400 236 400 l 607 400 z "},"\"":{"ha":1128,"x_min":408,"x_max":1660,"o":"m 1288 1133 q 1229 1114 1260 1133 q 1182 1067 1199 1094 l 1029 800 q 1008 725 1008 764 q 1015 690 1008 703 l 1200 376 q 1221 364 1208 364 q 1264 400 1243 364 l 1649 1067 q 1660 1100 1660 1085 q 1621 1133 1660 1133 l 1288 1133 m 688 1133 q 629 1114 660 1133 q 582 1067 599 1094 l 429 800 q 408 725 408 764 q 415 690 408 703 l 600 376 q 621 364 608 364 q 664 400 643 364 l 1049 1067 q 1060 1100 1060 1085 q 1021 1133 1060 1133 l 688 1133 z "},"#":{"ha":1385,"x_min":42,"x_max":1703,"o":"m 1615 533 l 1693 667 q 1703 700 1703 685 q 1665 733 1703 728 q 1626 767 1626 739 q 1636 800 1626 782 l 1636 800 q 1647 833 1647 818 q 1608 867 1647 867 l 1275 867 q 1217 847 1247 867 q 1169 800 1186 828 l 1169 800 q 1123 753 1154 772 q 1065 733 1092 733 l 1065 733 q 1026 767 1026 733 q 1036 800 1026 782 l 1036 800 q 1047 833 1047 818 q 1008 867 1047 867 l 675 867 q 617 847 647 867 q 569 800 586 828 l 569 800 q 523 753 554 772 q 465 733 492 733 l 465 733 q 406 714 438 733 q 360 667 375 694 l 282 533 q 272 500 272 515 q 311 467 272 467 l 311 467 q 349 433 349 467 q 339 400 349 418 l 339 400 q 292 353 324 372 q 233 333 261 333 l 233 333 q 175 314 206 333 q 129 267 144 294 l 51 133 q 42 100 42 115 q 79 67 42 67 l 79 67 q 118 33 118 67 q 108 0 118 18 l 108 0 q 97 -33 97 -18 q 136 -67 97 -67 l 469 -67 q 528 -47 497 -67 q 575 0 558 -28 l 575 0 q 622 47 590 28 q 679 67 653 67 l 679 67 q 718 33 718 67 q 708 0 718 18 l 708 0 q 697 -33 697 -18 q 736 -67 697 -67 l 1069 -67 q 1128 -47 1097 -67 q 1175 0 1158 -28 l 1175 0 q 1280 67 1203 50 q 1385 133 1357 83 l 1463 267 q 1472 300 1472 285 q 1434 333 1472 328 q 1396 367 1396 339 q 1406 400 1396 382 l 1406 400 q 1511 467 1435 450 q 1615 533 1588 483 m 833 333 q 796 367 796 333 q 806 400 796 382 l 806 400 q 852 447 821 428 q 911 467 883 467 l 911 467 q 949 433 949 467 q 939 400 949 418 l 939 400 q 892 353 924 372 q 833 333 861 333 z "},"$":{"ha":1146,"x_min":0,"x_max":1433,"o":"m 1242 467 q 1300 486 1269 467 q 1347 533 1331 506 l 1424 667 q 1433 700 1433 685 q 1396 733 1433 733 q 1303 776 1329 733 l 1118 1090 q 1099 1103 1111 1103 q 1054 1067 1075 1103 l 900 800 q 854 753 885 772 q 796 733 824 733 l 463 733 q 403 714 435 733 q 357 667 372 694 l 203 400 q 193 367 193 382 q 231 333 193 333 l 697 333 q 736 300 736 333 q 726 267 736 285 l 649 133 q 602 86 633 106 q 544 67 571 67 q 506 100 506 67 q 515 133 506 115 l 554 200 q 564 233 564 218 q 526 267 564 267 l 193 267 q 134 247 165 267 q 88 200 103 228 l 11 67 q 0 33 0 49 q 39 0 0 0 q 131 -43 106 0 l 315 -357 q 336 -369 324 -369 q 379 -333 358 -369 l 533 -67 q 581 -19 550 -39 q 639 0 611 0 l 972 0 q 1031 19 1000 0 q 1078 67 1061 39 l 1231 333 q 1242 367 1242 351 q 1203 400 1242 400 l 736 400 q 699 433 699 400 q 708 467 699 449 l 785 600 q 832 647 801 628 q 890 667 863 667 q 929 633 929 667 q 918 600 929 618 l 881 533 q 869 500 869 515 q 908 467 869 467 l 1242 467 z "},"%":{"ha":1540,"x_min":353,"x_max":1497,"o":"m 1379 783 q 1400 858 1400 819 q 1393 893 1400 881 l 1208 1207 q 1188 1219 1200 1219 q 1144 1183 1165 1219 l 432 -50 q 411 -125 411 -85 q 419 -160 411 -146 l 604 -472 q 624 -486 611 -486 q 668 -450 647 -486 l 1379 783 m 757 1033 q 553 965 661 1033 q 389 800 444 897 q 353 683 353 738 q 388 599 353 631 q 488 567 424 567 q 692 635 585 567 q 856 800 800 703 q 892 917 892 863 q 856 1001 892 969 q 757 1033 821 1033 m 1363 233 q 1158 165 1265 233 q 994 0 1050 97 q 958 -117 958 -62 q 994 -201 958 -169 q 1093 -233 1029 -233 q 1297 -165 1189 -233 q 1461 0 1404 -97 q 1497 117 1497 63 q 1461 201 1497 169 q 1363 233 1425 233 z "},"&":{"ha":1403,"x_min":4,"x_max":1592,"o":"m 1540 400 q 1551 433 1551 418 q 1513 467 1551 467 l 1513 467 q 1474 500 1474 467 q 1484 533 1474 513 q 1494 567 1494 554 q 1456 600 1494 600 l 1122 600 q 1017 533 1074 600 q 913 467 961 467 l 913 467 q 854 447 885 467 q 807 400 824 428 q 797 367 797 382 q 835 333 797 333 l 835 333 q 874 300 874 333 q 864 267 874 285 l 786 133 q 740 86 771 106 q 682 67 708 67 l 549 67 q 510 100 510 67 q 519 133 510 115 l 828 667 q 875 714 844 694 q 933 733 906 733 l 933 733 l 1400 733 q 1458 753 1428 733 q 1506 800 1489 772 l 1582 933 q 1592 967 1592 951 q 1554 1000 1592 1000 l 621 1000 q 562 981 593 1000 q 515 933 531 961 l 15 67 q 4 33 4 49 q 43 0 4 0 l 1110 0 q 1168 19 1138 0 q 1215 67 1199 39 l 1331 267 q 1377 314 1346 294 q 1435 333 1408 333 l 1435 333 q 1494 353 1463 333 q 1540 400 1525 372 m 943 867 q 990 914 960 894 q 1049 933 1021 933 l 1049 933 q 1088 900 1088 933 q 1076 867 1088 885 q 1030 819 1061 839 q 972 800 999 800 l 972 800 q 933 833 933 800 q 943 867 933 849 z "},"'":{"ha":528,"x_min":410,"x_max":1061,"o":"m 689 1133 q 631 1114 663 1133 q 585 1067 600 1094 l 431 800 q 410 725 410 764 q 418 690 410 703 l 601 376 q 622 364 610 364 q 667 400 646 364 l 1051 1067 q 1061 1100 1061 1085 q 1022 1133 1061 1133 l 689 1133 z "},"(":{"ha":917,"x_min":32,"x_max":1318,"o":"m 1125 867 q 1172 914 1140 894 q 1231 933 1203 933 q 1282 943 1254 933 q 1318 976 1318 956 q 1268 1000 1318 1000 l 801 1000 q 744 981 775 1000 q 697 933 713 961 l 42 -200 q 32 -233 32 -218 q 71 -267 32 -267 l 538 -267 q 589 -257 561 -267 q 626 -224 626 -244 q 582 -201 626 -206 q 538 -167 538 -196 q 547 -133 538 -151 l 1125 867 z "},")":{"ha":921,"x_min":-133,"x_max":1154,"o":"m 649 1000 q 596 990 625 1000 q 560 957 560 978 q 604 935 560 940 q 649 900 649 929 q 639 867 649 885 l 61 -133 q 14 -181 44 -161 q -42 -200 -17 -200 q -96 -210 -68 -200 q -133 -243 -133 -222 q -83 -267 -133 -267 l 383 -267 q 442 -247 411 -267 q 489 -200 474 -228 l 1143 933 q 1154 967 1154 951 q 1115 1000 1154 1000 l 649 1000 z "},"*":{"ha":1022,"x_min":331,"x_max":1361,"o":"m 1350 732 q 1361 765 1361 750 q 1322 799 1361 799 l 1222 799 q 1131 842 1156 799 l 946 1156 q 925 1168 938 1168 q 882 1132 903 1168 l 728 865 q 681 818 711 838 q 622 799 650 799 l 522 799 q 464 779 494 799 q 417 732 433 760 l 340 599 q 331 565 331 581 q 368 532 331 532 l 535 532 l 746 175 q 765 163 753 163 q 810 199 789 163 l 964 465 q 1010 513 979 493 q 1068 532 1040 532 l 1168 532 q 1227 551 1196 532 q 1274 599 1258 571 l 1350 732 z "},"+":{"ha":1118,"x_min":115,"x_max":1356,"o":"m 1150 599 q 1113 632 1113 599 q 1122 665 1113 647 l 1122 665 l 1200 799 q 1210 832 1210 817 q 1171 865 1210 865 l 838 865 q 780 846 811 865 q 733 799 749 826 l 733 799 l 656 665 q 609 618 640 638 q 550 599 578 599 l 383 599 q 326 579 357 599 q 279 532 294 560 l 125 265 q 115 232 115 247 q 153 199 115 199 l 319 199 q 358 165 358 199 q 347 132 358 150 l 251 -35 q 249 -43 249 -39 q 299 -68 249 -68 l 632 -68 q 718 -35 699 -68 l 814 132 q 861 179 831 160 q 919 199 892 199 l 1086 199 q 1144 218 1114 199 q 1192 265 1175 238 l 1346 532 q 1356 565 1356 550 q 1317 599 1356 599 l 1150 599 z "},",":{"ha":542,"x_min":0,"x_max":651,"o":"m 279 400 q 222 381 253 400 q 175 333 190 361 l 21 67 q 0 -8 0 31 q 8 -43 0 -31 l 192 -357 q 213 -369 200 -369 q 257 -333 236 -369 l 642 333 q 651 367 651 351 q 613 400 651 400 l 279 400 z "},"-":{"ha":1164,"x_min":133,"x_max":1374,"o":"m 403 599 q 344 579 375 599 q 297 532 313 560 l 143 265 q 133 232 133 247 q 171 199 133 199 l 1104 199 q 1163 218 1132 199 q 1210 265 1194 238 l 1364 532 q 1374 565 1374 550 q 1336 599 1374 599 l 403 599 z "},".":{"ha":542,"x_min":7,"x_max":649,"o":"m 379 0 q 437 19 406 0 q 483 67 468 39 l 638 333 q 649 367 649 351 q 610 400 649 400 l 276 400 q 218 381 249 400 q 171 333 188 361 l 17 67 q 7 33 7 49 q 46 0 7 0 l 379 0 z "},"/":{"ha":554,"x_min":-137,"x_max":1017,"o":"m 996 933 q 1017 1008 1017 969 q 1008 1043 1017 1031 l 824 1357 q 804 1369 817 1369 q 760 1333 781 1369 l -121 -192 q -137 -256 -137 -221 q -129 -293 -137 -279 l 56 -607 q 76 -619 63 -619 q 119 -583 99 -619 l 996 933 z "},":":{"ha":550,"x_min":24,"x_max":857,"o":"m 664 467 q 722 486 692 467 q 769 533 753 506 l 846 667 q 857 700 857 685 q 818 733 857 733 l 485 733 q 426 714 457 733 q 379 667 396 694 l 303 533 q 292 500 292 515 q 331 467 292 467 l 664 467 m 394 0 q 453 19 422 0 q 500 67 483 39 l 654 333 q 664 367 664 351 q 625 400 664 400 l 292 400 q 234 381 265 400 q 188 333 203 361 l 33 67 q 24 33 24 49 q 61 0 24 0 l 394 0 z "},";":{"ha":550,"x_min":10,"x_max":853,"o":"m 482 733 q 423 714 454 733 q 376 667 392 694 l 299 533 q 289 500 289 515 q 328 467 289 467 l 661 467 q 719 486 689 467 q 765 533 750 506 l 843 667 q 853 700 853 685 q 815 733 853 733 l 482 733 m 29 67 q 10 -8 10 31 q 17 -43 10 -31 l 201 -357 q 221 -369 208 -369 q 265 -333 244 -369 l 650 333 q 661 367 661 351 q 622 400 661 400 l 289 400 q 231 381 261 400 q 183 333 200 361 l 29 67 z "},"<":{"ha":765,"x_min":4,"x_max":888,"o":"m 479 290 q 471 325 471 303 q 492 400 471 364 l 876 1067 q 888 1100 888 1085 q 849 1133 888 1133 l 515 1133 q 457 1114 488 1133 q 410 1067 426 1094 l 25 400 q 4 325 4 364 q 13 290 4 303 l 197 -24 q 289 -67 222 -67 l 622 -67 q 668 -39 668 -67 q 664 -24 668 -31 l 479 290 z "},"=":{"ha":1044,"x_min":64,"x_max":1326,"o":"m 488 733 q 429 714 460 733 q 382 667 399 694 l 306 533 q 294 500 294 515 q 333 467 294 467 l 1133 467 q 1192 486 1161 467 q 1239 533 1222 506 l 1315 667 q 1326 700 1326 685 q 1288 733 1326 733 l 488 733 m 257 333 q 198 314 229 333 q 151 267 167 294 l 75 133 q 64 100 64 115 q 103 67 64 67 l 903 67 q 961 86 931 67 q 1008 133 992 106 l 1085 267 q 1094 300 1094 285 q 1057 333 1094 333 l 257 333 z "},">":{"ha":596,"x_min":4,"x_max":899,"o":"m 388 -67 q 447 -47 415 -67 q 493 0 478 -28 l 878 667 q 899 742 899 703 q 892 776 899 764 l 707 1090 q 614 1133 681 1133 l 281 1133 q 235 1106 235 1133 q 240 1090 235 1099 l 425 776 q 432 742 432 764 q 411 667 432 703 l 104 133 l 46 33 l 7 -33 q 4 -43 4 -37 q 54 -67 4 -67 l 388 -67 z "},"?":{"ha":1146,"x_min":-4,"x_max":1360,"o":"m 188 267 q 129 247 160 267 q 83 200 99 228 l 6 67 q -4 33 -4 49 q 33 0 -4 0 l 367 0 q 426 19 394 0 q 472 67 457 39 l 550 200 q 560 233 560 218 q 521 267 560 267 l 188 267 m 349 1133 q 290 1114 321 1133 q 243 1067 258 1094 l 167 933 q 156 900 156 915 q 194 867 156 867 l 528 867 q 586 886 556 867 q 633 933 617 906 l 671 1000 q 718 1047 688 1028 q 776 1067 749 1067 q 829 1076 800 1067 q 865 1110 865 1089 q 815 1133 865 1133 l 815 1133 l 349 1133 m 742 533 q 789 581 758 561 q 847 600 819 600 l 1014 600 q 1072 619 1042 600 q 1119 667 1103 639 l 1350 1067 q 1360 1100 1360 1085 q 1321 1133 1360 1133 l 988 1133 q 930 1114 961 1133 q 883 1067 899 1094 l 729 800 q 682 753 713 772 q 624 733 651 733 l 457 733 q 399 714 429 733 q 351 667 368 694 l 236 467 q 226 433 226 449 q 265 400 226 400 l 599 400 q 656 419 625 400 q 703 467 688 439 l 742 533 z "},"A":{"ha":1132,"x_min":-7,"x_max":1426,"o":"m 456 733 q 397 714 428 733 q 350 667 365 694 l 272 533 q 263 500 263 515 q 301 467 263 467 l 635 467 q 692 486 661 467 q 739 533 724 506 l 778 600 q 825 647 794 628 q 883 667 856 667 l 883 667 q 921 633 921 667 q 911 600 921 618 l 835 467 q 788 419 818 439 q 729 400 757 400 l 729 400 l 263 400 q 204 381 235 400 q 157 333 174 361 l 3 67 q -7 33 -7 49 q 32 0 -7 0 l 965 0 q 1023 19 992 0 q 1069 67 1054 39 l 1417 667 q 1426 700 1426 685 q 1389 733 1426 733 l 456 733 m 642 133 q 595 86 626 106 q 536 67 564 67 l 536 67 q 499 100 499 67 q 508 133 499 115 l 586 267 q 632 314 601 294 q 690 333 663 333 l 690 333 q 729 300 729 333 q 719 267 729 285 l 642 133 z "},"B":{"ha":1118,"x_min":10,"x_max":1443,"o":"m 938 733 q 897 765 897 733 q 904 792 897 778 q 921 856 921 821 q 913 893 921 879 l 728 1207 q 708 1219 721 1219 q 664 1183 685 1219 l 19 67 q 10 33 10 49 q 47 0 10 0 l 981 0 q 1040 19 1008 0 q 1086 67 1071 39 l 1432 667 q 1443 700 1443 685 q 1404 733 1443 733 l 938 733 m 658 133 q 611 86 642 106 q 553 67 581 67 q 514 100 514 67 q 525 133 514 115 l 794 600 q 841 647 810 628 q 899 667 872 667 q 938 633 938 667 q 928 600 938 618 l 658 133 z "},"C":{"ha":1118,"x_min":0,"x_max":1433,"o":"m 1242 467 q 1299 486 1268 467 q 1346 533 1331 506 l 1424 667 q 1433 700 1433 685 q 1396 733 1433 733 l 463 733 q 403 714 435 733 q 357 667 372 694 l 10 67 q 0 33 0 49 q 39 0 0 0 l 972 0 q 1030 19 999 0 q 1076 67 1061 39 l 1231 333 q 1242 367 1242 351 q 1203 400 1242 400 l 869 400 q 811 381 842 400 q 764 333 781 361 l 649 133 q 602 86 633 106 q 543 67 571 67 l 543 67 q 506 100 506 67 q 515 133 506 115 l 785 600 q 832 647 801 628 q 890 667 863 667 l 890 667 q 928 633 928 667 q 918 600 928 618 l 879 533 q 869 500 869 515 q 908 467 869 467 l 1242 467 z "},"D":{"ha":1118,"x_min":-10,"x_max":1503,"o":"m 1310 1207 q 1290 1219 1303 1219 q 1246 1183 1267 1219 l 1025 800 q 978 753 1008 772 q 919 733 947 733 l 919 733 l 453 733 q 394 714 425 733 q 347 667 364 694 l 1 67 q -10 33 -10 49 q 29 0 -10 0 l 963 0 q 1021 19 990 0 q 1068 67 1051 39 l 1486 792 q 1503 856 1503 821 q 1494 893 1503 879 l 1310 1207 m 640 133 q 593 86 624 106 q 535 67 563 67 l 535 67 q 496 100 496 67 q 507 133 496 115 l 775 600 q 822 647 792 628 q 881 667 853 667 l 881 667 q 919 633 919 667 q 908 600 919 618 l 640 133 z "},"E":{"ha":1118,"x_min":-4,"x_max":1429,"o":"m 693 333 l 1160 333 q 1218 353 1188 333 q 1265 400 1249 372 l 1419 667 q 1429 700 1429 685 q 1390 733 1429 733 l 457 733 q 399 714 429 733 q 353 667 368 694 l 6 67 q -4 33 -4 49 q 33 0 -4 0 l 967 0 q 1026 19 994 0 q 1072 67 1057 39 l 1150 200 q 1160 233 1160 218 q 1121 267 1160 267 l 788 267 q 729 247 760 267 q 683 200 699 228 l 644 133 q 597 86 628 106 q 539 67 567 67 q 500 100 500 67 q 511 133 500 115 l 588 267 q 635 314 604 294 q 693 333 665 333 m 781 600 q 827 647 796 628 q 886 667 858 667 q 924 633 924 667 q 914 600 924 618 l 836 467 q 790 419 821 439 q 732 400 758 400 q 693 433 693 400 q 703 467 693 449 l 781 600 z "},"F":{"ha":522,"x_min":-76,"x_max":1210,"o":"m 1122 1067 q 1174 1076 1146 1067 q 1210 1110 1210 1089 q 1160 1133 1210 1133 l 693 1133 q 635 1114 665 1133 q 589 1067 604 1094 l -56 -49 q -76 -124 -76 -85 q -68 -158 -76 -146 l 115 -472 q 136 -485 124 -485 q 181 -449 160 -485 l 863 733 q 909 781 878 761 q 968 800 940 800 l 968 800 q 1019 810 992 800 q 1056 843 1056 822 q 1006 867 1056 867 l 1006 867 q 968 900 968 867 q 978 933 968 915 l 1017 1000 q 1063 1047 1032 1028 q 1122 1067 1094 1067 z "},"G":{"ha":1104,"x_min":-4,"x_max":1429,"o":"m 710 -472 q 731 -486 718 -486 q 775 -450 754 -486 l 1226 333 q 1236 367 1236 351 q 1199 400 1236 400 l 865 400 q 806 381 838 400 q 760 333 775 361 l 644 133 q 597 86 628 106 q 539 67 567 67 l 539 67 q 500 100 500 67 q 511 133 500 115 l 781 600 q 827 647 796 628 q 886 667 858 667 l 886 667 q 924 633 924 667 q 914 600 924 618 l 875 533 q 865 500 865 515 q 903 467 865 467 l 1236 467 q 1295 486 1264 467 q 1342 533 1326 506 l 1419 667 q 1429 700 1429 685 q 1390 733 1429 733 l 457 733 q 399 714 429 733 q 353 667 368 694 l 6 67 q -4 33 -4 49 q 33 0 -4 0 l 500 0 q 542 -32 542 0 q 533 -58 542 -44 q 517 -121 517 -86 q 525 -160 517 -144 l 710 -472 z "},"H":{"ha":1146,"x_min":-10,"x_max":1425,"o":"m 919 733 q 878 765 878 733 q 886 792 878 778 q 903 856 903 821 q 894 893 903 879 l 710 1207 q 690 1219 703 1219 q 646 1183 667 1219 l 1 67 q -10 33 -10 49 q 29 0 -10 0 l 363 0 q 421 19 390 0 q 468 67 451 39 l 775 600 q 822 647 792 628 q 881 667 853 667 l 881 667 q 919 633 919 667 q 908 600 919 618 l 601 67 q 590 33 590 49 q 629 0 590 0 l 963 0 q 1021 19 990 0 q 1068 67 1051 39 l 1414 667 q 1425 700 1425 685 q 1386 733 1425 733 l 919 733 z "},"I":{"ha":536,"x_min":14,"x_max":847,"o":"m 386 0 q 444 19 413 0 q 490 67 475 39 l 838 667 q 847 700 847 685 q 808 733 847 733 l 475 733 q 417 714 449 733 q 371 667 386 694 l 24 67 q 14 33 14 49 q 53 0 14 0 l 386 0 z "},"J":{"ha":596,"x_min":-10,"x_max":903,"o":"m 893 668 q 903 701 903 686 q 865 735 903 735 l 532 735 q 473 715 504 735 q 426 668 442 696 l 7 -57 q -10 -121 -10 -86 q 0 -158 -10 -144 l 183 -472 q 204 -485 192 -485 q 249 -449 228 -485 l 893 668 z "},"K":{"ha":1146,"x_min":13,"x_max":1447,"o":"m 1436 667 q 1447 700 1447 685 q 1408 733 1447 733 l 1075 733 q 1017 714 1047 733 q 969 667 986 694 l 931 600 q 885 553 915 572 q 826 533 854 533 l 826 533 q 788 567 788 533 q 797 600 788 582 l 908 792 q 925 856 925 821 q 917 893 925 879 l 732 1207 q 713 1219 725 1219 q 668 1183 689 1219 l 24 67 q 13 33 13 49 q 51 0 13 0 l 385 0 q 443 19 413 0 q 490 67 474 39 l 682 400 q 729 447 699 428 q 788 467 760 467 l 788 467 q 826 433 826 467 q 815 400 826 418 l 624 67 q 613 33 613 49 q 651 0 613 0 l 985 0 q 1042 17 1013 0 q 1085 58 1071 35 q 1101 122 1101 88 q 1093 160 1101 146 l 939 424 q 933 439 933 432 q 979 467 933 467 l 1254 467 q 1313 486 1282 467 q 1360 533 1343 506 l 1436 667 z "},"L":{"ha":536,"x_min":4,"x_max":917,"o":"m 724 1207 q 704 1219 717 1219 q 660 1183 681 1219 l 439 800 l 15 67 q 4 33 4 49 q 43 0 4 0 l 376 0 q 435 19 404 0 q 482 67 465 39 l 900 792 q 917 856 917 821 q 908 893 917 879 l 724 1207 z "},"M":{"ha":1714,"x_min":-10,"x_max":2025,"o":"m 1129 -58 q 1113 -121 1113 -86 q 1121 -160 1113 -144 l 1306 -472 q 1326 -486 1314 -486 q 1369 -450 1349 -486 l 2014 667 q 2025 700 2025 685 q 1986 733 2025 733 l 453 733 q 394 714 425 733 q 347 667 364 694 l 1 67 q -10 33 -10 49 q 29 0 -10 0 l 363 0 q 421 19 390 0 q 468 67 451 39 l 775 600 q 822 647 792 628 q 881 667 853 667 l 881 667 q 919 633 919 667 q 908 600 919 618 l 601 67 q 590 33 590 49 q 629 0 590 0 l 963 0 q 1021 19 990 0 q 1068 67 1051 39 l 1376 600 q 1422 647 1392 628 q 1481 667 1453 667 l 1481 667 q 1519 633 1519 667 q 1510 600 1519 618 l 1129 -58 z "},"N":{"ha":1146,"x_min":15,"x_max":1449,"o":"m 476 733 q 419 714 450 733 q 372 667 388 694 l 25 67 q 15 33 15 49 q 54 0 15 0 l 388 0 q 445 19 414 0 q 492 67 476 39 l 800 600 q 847 647 815 628 q 906 667 878 667 q 943 633 943 667 q 933 600 943 618 l 625 67 q 615 33 615 49 q 654 0 615 0 l 988 0 q 1045 19 1014 0 q 1092 67 1076 39 l 1439 667 q 1449 700 1449 685 q 1410 733 1449 733 l 476 733 z "},"O":{"ha":1146,"x_min":24,"x_max":1457,"o":"m 485 733 q 427 714 458 733 q 381 667 396 694 l 33 67 q 24 33 24 49 q 63 0 24 0 l 996 0 q 1053 19 1022 0 q 1100 67 1085 39 l 1447 667 q 1457 700 1457 685 q 1418 733 1457 733 l 485 733 m 672 133 q 626 86 657 106 q 567 67 594 67 l 567 67 q 529 100 529 67 q 539 133 529 115 l 808 600 q 855 647 824 628 q 914 667 886 667 l 914 667 q 951 633 951 667 q 942 600 951 618 l 672 133 z "},"P":{"ha":1188,"x_min":-10,"x_max":1503,"o":"m 531 733 q 472 714 503 733 q 426 667 442 694 l 7 -58 q -10 -121 -10 -86 q 0 -160 -10 -144 l 183 -472 q 204 -486 192 -486 q 249 -450 228 -486 l 469 -67 q 516 -19 485 -39 q 574 0 547 0 l 574 0 l 1040 0 q 1099 19 1068 0 q 1146 67 1131 39 l 1493 667 q 1503 700 1503 685 q 1464 733 1503 733 l 531 733 m 718 133 q 671 86 701 106 q 613 67 640 67 l 613 67 q 574 100 574 67 q 585 133 574 115 l 854 600 q 901 647 869 628 q 960 667 932 667 l 960 667 q 997 633 997 667 q 988 600 997 618 l 718 133 z "},"Q":{"ha":1146,"x_min":8,"x_max":1443,"o":"m 1432 667 q 1443 700 1443 685 q 1404 733 1443 733 l 471 733 q 413 714 443 733 q 365 667 382 694 l 19 67 q 8 33 8 49 q 47 0 8 0 l 514 0 q 556 -32 556 0 q 547 -58 556 -44 q 531 -122 531 -87 q 539 -160 531 -146 l 724 -474 q 743 -486 731 -486 q 788 -450 767 -486 l 1432 667 m 553 67 q 514 100 514 67 q 525 133 514 115 l 794 600 q 840 647 810 628 q 899 667 871 667 l 899 667 q 938 633 938 667 q 928 600 938 618 l 658 133 q 611 86 642 106 q 553 67 581 67 z "},"R":{"ha":1146,"x_min":-10,"x_max":1424,"o":"m 451 733 q 393 714 424 733 q 346 667 363 694 l 0 67 q -10 33 -10 49 q 28 0 -10 0 l 361 0 q 420 19 389 0 q 467 67 451 39 l 775 600 q 822 647 790 628 q 879 667 853 667 l 879 667 q 918 633 918 667 q 908 600 918 618 l 869 533 q 860 500 860 515 q 897 467 860 467 l 1231 467 q 1290 486 1258 467 q 1336 533 1321 506 l 1413 667 q 1424 700 1424 685 q 1385 733 1424 733 l 451 733 z "},"S":{"ha":1146,"x_min":10,"x_max":1443,"o":"m 1250 467 q 1309 486 1278 467 q 1356 533 1340 506 l 1432 667 q 1443 700 1443 685 q 1404 733 1443 733 l 471 733 q 413 714 443 733 q 365 667 382 694 l 213 400 q 201 367 201 382 q 240 333 201 333 l 707 333 q 746 300 746 333 q 735 267 746 285 l 658 133 q 611 86 642 106 q 553 67 581 67 q 514 100 514 67 q 525 133 514 115 l 563 200 q 574 233 574 218 q 535 267 574 267 l 201 267 q 143 247 174 267 q 96 200 113 228 l 19 67 q 10 33 10 49 q 47 0 10 0 l 981 0 q 1040 19 1008 0 q 1086 67 1071 39 l 1240 333 q 1250 367 1250 351 q 1213 400 1250 400 l 746 400 q 707 433 707 400 q 717 467 707 449 l 794 600 q 841 647 810 628 q 899 667 872 667 q 938 633 938 667 q 928 600 938 618 l 889 533 q 879 500 879 515 q 917 467 879 467 l 1250 467 z "},"T":{"ha":513,"x_min":-76,"x_max":1065,"o":"m 863 733 q 910 781 879 761 q 968 800 940 800 l 968 800 q 1021 810 992 800 q 1057 843 1057 822 q 1007 867 1057 867 l 1007 867 q 968 900 968 867 q 978 933 968 915 l 1056 1067 q 1065 1100 1065 1085 q 1028 1133 1065 1133 l 694 1133 q 635 1114 667 1133 q 589 1067 604 1094 l -56 -50 q -76 -125 -76 -85 q -68 -160 -76 -146 l 115 -472 q 136 -486 124 -486 q 181 -450 160 -486 l 863 733 z "},"U":{"ha":1118,"x_min":10,"x_max":1443,"o":"m 1071 733 q 1013 714 1043 733 q 965 667 982 694 l 658 133 q 611 86 642 106 q 553 67 581 67 q 514 100 514 67 q 525 133 514 115 l 832 667 q 843 700 843 685 q 804 733 843 733 l 471 733 q 413 714 443 733 q 365 667 382 694 l 19 67 q 10 33 10 49 q 47 0 10 0 l 981 0 q 1040 19 1008 0 q 1086 67 1071 39 l 1432 667 q 1443 700 1443 685 q 1404 733 1443 733 l 1071 733 z "},"V":{"ha":917,"x_min":22,"x_max":1236,"o":"m 864 733 q 806 714 836 733 q 758 667 775 694 l 451 133 q 404 86 435 106 q 346 67 374 67 q 307 100 307 67 q 318 133 307 115 l 625 667 q 636 700 636 685 q 597 733 636 733 l 264 733 q 206 714 236 733 q 158 667 175 694 l 43 467 q 24 392 22 431 q 31 357 24 369 l 215 43 q 307 0 240 0 l 774 0 q 833 19 801 0 q 879 67 864 39 l 1225 667 q 1236 700 1236 685 q 1197 733 1236 733 l 864 733 z "},"W":{"ha":1499,"x_min":0,"x_max":1813,"o":"m 1440 733 q 1382 714 1413 733 q 1336 667 1351 694 l 1028 133 q 981 86 1011 106 q 922 67 950 67 q 885 100 885 67 q 894 133 885 115 l 1203 667 q 1213 700 1213 685 q 1175 733 1213 733 l 842 733 q 783 714 814 733 q 736 667 751 694 l 428 133 q 381 86 413 106 q 324 67 350 67 q 285 100 285 67 q 294 133 285 115 l 603 667 q 613 700 613 685 q 575 733 613 733 l 242 733 q 183 714 214 733 q 136 667 151 694 l 21 467 q 0 392 0 431 q 8 357 0 369 l 218 0 l 1350 0 q 1409 19 1378 0 q 1456 67 1440 39 l 1803 667 q 1813 700 1813 685 q 1774 733 1813 733 l 1440 733 z "},"X":{"ha":1104,"x_min":-4,"x_max":1428,"o":"m 265 400 q 206 381 238 400 q 160 333 175 361 l 6 67 q -4 33 -4 49 q 33 0 -4 0 l 367 0 q 426 19 394 0 q 472 67 457 39 l 588 267 q 635 314 604 294 q 693 333 665 333 q 731 300 731 333 q 721 267 731 285 l 606 67 q 594 33 594 49 q 633 0 594 0 l 967 0 q 1025 19 994 0 q 1072 67 1056 39 l 1225 333 q 1236 367 1236 351 q 1197 400 1236 400 l 864 400 q 814 424 814 400 q 850 457 814 444 q 903 467 879 467 l 1236 467 q 1294 486 1264 467 q 1342 533 1325 506 l 1418 667 q 1428 700 1428 685 q 1390 733 1428 733 l 1057 733 q 998 714 1029 733 q 951 667 967 694 l 913 600 q 866 553 897 572 q 808 533 835 533 l 808 533 q 769 567 769 533 q 779 600 769 582 l 818 667 q 828 700 828 685 q 790 733 828 733 l 457 733 q 398 714 429 733 q 351 667 367 694 l 275 533 q 264 500 264 515 q 303 467 264 467 l 636 467 q 686 443 686 467 q 650 410 686 422 q 597 400 621 400 l 265 400 z "},"Y":{"ha":1156,"x_min":4,"x_max":1438,"o":"m 719 -474 q 739 -486 726 -486 q 783 -450 763 -486 l 1428 667 q 1438 700 1438 685 q 1400 733 1438 733 l 1067 733 q 1008 714 1039 733 q 961 667 978 694 l 653 133 q 606 86 638 106 q 549 67 575 67 l 549 67 q 510 100 510 67 q 519 133 510 115 l 828 667 q 838 700 838 685 q 800 733 838 733 l 467 733 q 408 714 439 733 q 361 667 378 694 l 15 67 q 4 33 4 49 q 43 0 4 0 l 510 0 q 550 -32 550 0 q 543 -58 550 -44 q 526 -122 526 -87 q 535 -160 526 -146 l 719 -474 z "},"Z":{"ha":1146,"x_min":-4,"x_max":1429,"o":"m 539 67 q 500 100 500 67 q 511 133 500 115 l 588 267 q 635 314 604 294 q 693 333 665 333 l 693 333 l 1160 333 q 1218 353 1188 333 q 1265 400 1249 372 l 1419 667 q 1429 700 1429 685 q 1390 733 1429 733 l 457 733 q 406 724 433 733 q 368 690 368 711 q 419 667 368 667 l 886 667 q 924 633 924 667 q 914 600 924 618 l 836 467 q 790 419 821 439 q 732 400 758 400 l 732 400 l 265 400 q 206 381 238 400 q 160 333 175 361 l 6 67 q -4 33 -4 49 q 33 0 -4 0 l 967 0 q 1019 10 992 0 q 1056 43 1056 22 q 1006 67 1056 67 l 539 67 z "},"[":{"ha":875,"x_min":-124,"x_max":1163,"o":"m 969 867 q 1016 914 985 894 q 1073 933 1047 933 q 1126 943 1099 933 q 1163 976 1163 956 q 1113 1000 1163 1000 l 646 1000 q 588 981 618 1000 q 540 933 557 961 l -114 -200 q -124 -233 -124 -218 q -85 -267 -124 -267 l 382 -267 q 433 -257 406 -267 q 469 -224 469 -244 q 426 -201 469 -206 q 382 -167 382 -196 q 392 -133 382 -151 l 969 867 z "},"\\":{"ha":1146,"x_min":7,"x_max":1149,"o":"m 776 1000 q 718 981 749 1000 q 672 933 688 961 l 17 -200 q 7 -233 7 -218 q 46 -267 7 -267 l 379 -267 q 437 -247 406 -267 q 483 -200 468 -228 l 1139 933 q 1149 967 1149 951 q 1110 1000 1149 1000 l 776 1000 z "},"]":{"ha":857,"x_min":18,"x_max":1306,"o":"m 800 1000 q 747 990 776 1000 q 711 957 711 978 q 756 935 711 940 q 800 900 800 929 q 789 867 800 885 l 213 -133 q 165 -181 196 -161 q 109 -200 135 -200 q 54 -210 83 -200 q 18 -243 18 -222 q 68 -267 18 -267 l 535 -267 q 594 -247 563 -267 q 640 -200 625 -228 l 1294 933 q 1306 967 1306 951 q 1267 1000 1306 1000 l 800 1000 z "},"a":{"ha":1146,"x_min":21,"x_max":1454,"o":"m 483 733 q 424 714 456 733 q 378 667 393 694 l 300 533 q 290 500 290 515 q 329 467 290 467 l 663 467 q 720 486 689 467 q 767 533 751 506 l 806 600 q 853 647 822 628 q 911 667 883 667 l 911 667 q 949 633 949 667 q 939 600 949 618 l 863 467 q 815 419 846 439 q 757 400 785 400 l 757 400 l 290 400 q 232 381 263 400 q 185 333 201 361 l 31 67 q 21 33 21 49 q 60 0 21 0 l 993 0 q 1051 19 1019 0 q 1097 67 1082 39 l 1444 667 q 1454 700 1454 685 q 1417 733 1454 733 l 483 733 m 669 133 q 623 86 654 106 q 564 67 592 67 l 564 67 q 526 100 526 67 q 536 133 526 115 l 614 267 q 660 314 629 294 q 718 333 690 333 l 718 333 q 757 300 757 333 q 747 267 757 285 l 669 133 z "},"b":{"ha":1146,"x_min":7,"x_max":1440,"o":"m 936 733 q 894 765 894 733 q 903 792 894 778 q 919 856 919 821 q 911 893 919 879 l 726 1207 q 706 1219 718 1219 q 663 1183 683 1219 l 17 67 q 7 33 7 49 q 46 0 7 0 l 979 0 q 1037 19 1006 0 q 1083 67 1068 39 l 1431 667 q 1440 700 1440 685 q 1403 733 1440 733 l 936 733 m 656 133 q 609 86 640 106 q 550 67 578 67 q 513 100 513 67 q 522 133 513 115 l 792 600 q 839 647 808 628 q 897 667 869 667 q 935 633 935 667 q 925 600 935 618 l 656 133 z "},"c":{"ha":1118,"x_min":0,"x_max":1433,"o":"m 1242 467 q 1299 486 1268 467 q 1346 533 1331 506 l 1424 667 q 1433 700 1433 685 q 1396 733 1433 733 l 463 733 q 403 714 435 733 q 357 667 372 694 l 10 67 q 0 33 0 49 q 39 0 0 0 l 972 0 q 1030 19 999 0 q 1076 67 1061 39 l 1231 333 q 1242 367 1242 351 q 1203 400 1242 400 l 869 400 q 811 381 842 400 q 764 333 781 361 l 649 133 q 602 86 633 106 q 543 67 571 67 l 543 67 q 506 100 506 67 q 515 133 506 115 l 785 600 q 832 647 801 628 q 890 667 863 667 l 890 667 q 928 633 928 667 q 918 600 928 618 l 879 533 q 869 500 869 515 q 908 467 869 467 l 1242 467 z "},"d":{"ha":1132,"x_min":7,"x_max":1519,"o":"m 1326 1207 q 1306 1219 1318 1219 q 1263 1183 1283 1219 l 1040 800 q 994 753 1025 772 q 936 733 963 733 l 936 733 l 469 733 q 410 714 442 733 q 364 667 379 694 l 17 67 q 7 33 7 49 q 46 0 7 0 l 979 0 q 1037 19 1006 0 q 1083 67 1068 39 l 1503 792 q 1519 856 1519 821 q 1511 893 1519 879 l 1326 1207 m 656 133 q 609 86 640 106 q 550 67 578 67 l 550 67 q 513 100 513 67 q 522 133 513 115 l 792 600 q 839 647 808 628 q 897 667 869 667 l 897 667 q 935 633 935 667 q 925 600 935 618 l 656 133 z "},"e":{"ha":1132,"x_min":7,"x_max":1440,"o":"m 704 333 l 1171 333 q 1230 353 1199 333 q 1276 400 1261 372 l 1431 667 q 1440 700 1440 685 q 1403 733 1440 733 l 469 733 q 410 714 442 733 q 364 667 379 694 l 17 67 q 7 33 7 49 q 46 0 7 0 l 979 0 q 1037 19 1006 0 q 1083 67 1068 39 l 1161 200 q 1171 233 1171 218 q 1133 267 1171 267 l 800 267 q 741 247 772 267 q 694 200 710 228 l 656 133 q 609 86 640 106 q 550 67 578 67 q 513 100 513 67 q 522 133 513 115 l 600 267 q 646 314 615 294 q 704 333 676 333 m 792 600 q 839 647 808 628 q 897 667 869 667 q 935 633 935 667 q 925 600 935 618 l 849 467 q 801 419 832 439 q 743 400 771 400 q 704 433 704 400 q 715 467 704 449 l 792 600 z "},"f":{"ha":540,"x_min":-62,"x_max":1224,"o":"m 1136 1067 q 1188 1076 1160 1067 q 1224 1110 1224 1089 q 1174 1133 1224 1133 l 707 1133 q 649 1114 679 1133 q 603 1067 618 1094 l -42 -49 q -62 -124 -62 -85 q -54 -158 -62 -146 l 129 -472 q 150 -485 138 -485 q 194 -449 174 -485 l 876 733 q 923 781 892 761 q 982 800 954 800 l 982 800 q 1033 810 1006 800 q 1069 843 1069 822 q 1019 867 1069 867 l 1019 867 q 982 900 982 867 q 992 933 982 915 l 1031 1000 q 1077 1047 1046 1028 q 1136 1067 1108 1067 z "},"g":{"ha":1132,"x_min":-7,"x_max":1426,"o":"m 708 -472 q 728 -486 715 -486 q 772 -450 751 -486 l 1224 333 q 1235 367 1235 351 q 1196 400 1235 400 l 863 400 q 804 381 835 400 q 757 333 774 361 l 642 133 q 595 86 626 106 q 536 67 564 67 l 536 67 q 499 100 499 67 q 508 133 499 115 l 778 600 q 825 647 794 628 q 883 667 856 667 l 883 667 q 921 633 921 667 q 911 600 921 618 l 872 533 q 863 500 863 515 q 901 467 863 467 l 1235 467 q 1292 486 1261 467 q 1339 533 1324 506 l 1417 667 q 1426 700 1426 685 q 1389 733 1426 733 l 456 733 q 397 714 428 733 q 350 667 365 694 l 3 67 q -7 33 -7 49 q 32 0 -7 0 l 499 0 q 539 -32 539 0 q 532 -58 539 -44 q 515 -121 515 -86 q 524 -160 515 -144 l 708 -472 z "},"h":{"ha":1156,"x_min":14,"x_max":1447,"o":"m 943 733 q 901 765 901 733 q 910 792 901 778 q 926 856 926 821 q 918 893 926 879 l 733 1207 q 713 1219 725 1219 q 669 1183 690 1219 l 24 67 q 14 33 14 49 q 53 0 14 0 l 386 0 q 444 19 413 0 q 490 67 475 39 l 799 600 q 846 647 815 628 q 904 667 876 667 l 904 667 q 942 633 942 667 q 932 600 942 618 l 624 67 q 614 33 614 49 q 653 0 614 0 l 986 0 q 1044 19 1013 0 q 1090 67 1075 39 l 1438 667 q 1447 700 1447 685 q 1410 733 1447 733 l 943 733 z "},"i":{"ha":546,"x_min":14,"x_max":847,"o":"m 386 0 q 444 19 413 0 q 490 67 475 39 l 838 667 q 847 700 847 685 q 810 733 847 733 l 476 733 q 417 714 449 733 q 371 667 386 694 l 24 67 q 14 33 14 49 q 53 0 14 0 l 386 0 z "},"j":{"ha":522,"x_min":-76,"x_max":836,"o":"m 825 668 q 836 701 836 686 q 797 735 836 735 l 464 735 q 406 715 436 735 q 358 668 375 696 l -60 -57 q -76 -121 -76 -86 q -68 -158 -76 -144 l 117 -472 q 138 -485 124 -485 q 181 -449 160 -485 l 825 668 z "},"k":{"ha":1118,"x_min":0,"x_max":1433,"o":"m 1424 667 q 1433 700 1433 685 q 1396 733 1433 733 l 1063 733 q 1003 714 1035 733 q 957 667 972 694 l 918 600 q 872 553 903 572 q 813 533 840 533 l 813 533 q 775 567 775 533 q 785 600 775 582 l 896 792 q 913 856 913 821 q 904 893 913 879 l 719 1207 q 699 1219 711 1219 q 656 1183 676 1219 l 10 67 q 0 33 0 49 q 39 0 0 0 l 372 0 q 430 19 399 0 q 476 67 461 39 l 669 400 q 716 447 685 428 q 775 467 747 467 l 775 467 q 813 433 813 467 q 803 400 813 418 l 610 67 q 600 33 600 49 q 639 0 600 0 l 972 0 q 1028 17 999 0 q 1072 58 1058 35 q 1089 122 1089 88 q 1081 160 1089 146 l 925 424 q 921 439 921 432 q 967 467 921 467 l 1242 467 q 1299 486 1268 467 q 1346 533 1331 506 l 1424 667 z "},"l":{"ha":546,"x_min":21,"x_max":933,"o":"m 740 1207 q 719 1219 732 1219 q 676 1183 697 1219 l 454 800 l 31 67 q 21 33 21 49 q 60 0 21 0 l 393 0 q 451 19 419 0 q 497 67 482 39 l 917 792 q 933 856 933 821 q 925 893 933 879 l 740 1207 z "},"m":{"ha":1706,"x_min":-7,"x_max":2026,"o":"m 1132 -58 q 1115 -121 1115 -86 q 1124 -160 1115 -144 l 1308 -472 q 1328 -486 1315 -486 q 1372 -450 1351 -486 l 2017 667 q 2026 700 2026 685 q 1989 733 2026 733 l 456 733 q 397 714 428 733 q 350 667 365 694 l 3 67 q -7 33 -7 49 q 32 0 -7 0 l 365 0 q 423 19 392 0 q 469 67 454 39 l 778 600 q 825 647 794 628 q 883 667 856 667 l 883 667 q 921 633 921 667 q 911 600 921 618 l 603 67 q 593 33 593 49 q 632 0 593 0 l 965 0 q 1023 19 992 0 q 1069 67 1054 39 l 1378 600 q 1425 647 1394 628 q 1483 667 1456 667 l 1483 667 q 1521 633 1521 667 q 1511 600 1521 618 l 1132 -58 z "},"n":{"ha":1132,"x_min":0,"x_max":1433,"o":"m 463 733 q 403 714 435 733 q 357 667 372 694 l 10 67 q 0 33 0 49 q 39 0 0 0 l 372 0 q 430 19 399 0 q 476 67 461 39 l 785 600 q 832 647 801 628 q 890 667 863 667 q 928 633 928 667 q 918 600 928 618 l 610 67 q 600 33 600 49 q 639 0 600 0 l 972 0 q 1030 19 999 0 q 1076 67 1061 39 l 1424 667 q 1433 700 1433 685 q 1396 733 1433 733 l 463 733 z "},"o":{"ha":1146,"x_min":7,"x_max":1440,"o":"m 469 733 q 410 714 442 733 q 364 667 379 694 l 17 67 q 7 33 7 49 q 46 0 7 0 l 979 0 q 1037 19 1006 0 q 1083 67 1068 39 l 1431 667 q 1440 700 1440 685 q 1403 733 1440 733 l 469 733 m 656 133 q 609 86 640 106 q 550 67 578 67 l 550 67 q 513 100 513 67 q 522 133 513 115 l 792 600 q 839 647 808 628 q 897 667 869 667 l 897 667 q 935 633 935 667 q 925 600 935 618 l 656 133 z "},"p":{"ha":1136,"x_min":-83,"x_max":1429,"o":"m 457 733 q 399 714 429 733 q 351 667 368 694 l -67 -58 q -83 -121 -83 -86 q -75 -160 -83 -144 l 110 -472 q 131 -486 117 -486 q 174 -450 153 -486 l 394 -67 q 442 -19 411 -39 q 500 0 472 0 l 500 0 l 967 0 q 1025 19 994 0 q 1072 67 1056 39 l 1418 667 q 1429 700 1429 685 q 1390 733 1429 733 l 457 733 m 643 133 q 597 86 628 106 q 539 67 567 67 l 539 67 q 500 100 500 67 q 510 133 500 115 l 779 600 q 826 647 796 628 q 885 667 857 667 l 885 667 q 924 633 924 667 q 913 600 924 618 l 643 133 z "},"q":{"ha":1146,"x_min":7,"x_max":1440,"o":"m 1431 667 q 1440 700 1440 685 q 1403 733 1440 733 l 469 733 q 410 714 442 733 q 364 667 379 694 l 17 67 q 7 33 7 49 q 46 0 7 0 l 513 0 q 553 -32 553 0 q 544 -58 553 -44 q 528 -122 528 -87 q 538 -160 528 -146 l 721 -474 q 742 -486 729 -486 q 786 -450 765 -486 l 1431 667 m 550 67 q 513 100 513 67 q 522 133 513 115 l 792 600 q 839 647 808 628 q 897 667 869 667 l 897 667 q 935 633 935 667 q 925 600 935 618 l 656 133 q 609 86 640 106 q 550 67 578 67 z "},"r":{"ha":1132,"x_min":21,"x_max":1454,"o":"m 483 733 q 424 714 456 733 q 378 667 393 694 l 31 67 q 21 33 21 49 q 60 0 21 0 l 393 0 q 451 19 419 0 q 497 67 482 39 l 806 600 q 853 647 822 628 q 911 667 883 667 l 911 667 q 949 633 949 667 q 939 600 949 618 l 900 533 q 890 500 890 515 q 929 467 890 467 l 1263 467 q 1320 486 1289 467 q 1367 533 1351 506 l 1444 667 q 1454 700 1454 685 q 1417 733 1454 733 l 483 733 z "},"s":{"ha":1146,"x_min":21,"x_max":1454,"o":"m 1263 467 q 1320 486 1289 467 q 1367 533 1351 506 l 1444 667 q 1454 700 1454 685 q 1417 733 1454 733 l 483 733 q 424 714 456 733 q 378 667 393 694 l 224 400 q 214 367 214 382 q 251 333 214 333 l 718 333 q 757 300 757 333 q 747 267 757 285 l 669 133 q 623 86 654 106 q 564 67 592 67 q 526 100 526 67 q 536 133 526 115 l 575 200 q 585 233 585 218 q 547 267 585 267 l 214 267 q 155 247 186 267 q 108 200 124 228 l 31 67 q 21 33 21 49 q 60 0 21 0 l 993 0 q 1051 19 1019 0 q 1097 67 1082 39 l 1251 333 q 1263 367 1263 351 q 1224 400 1263 400 l 757 400 q 718 433 718 400 q 729 467 718 449 l 806 600 q 853 647 822 628 q 911 667 883 667 q 949 633 949 667 q 939 600 949 618 l 900 533 q 890 500 890 515 q 929 467 890 467 l 1263 467 z "},"t":{"ha":619,"x_min":-69,"x_max":1072,"o":"m 869 733 q 917 781 886 761 q 975 800 947 800 l 975 800 q 1028 810 999 800 q 1064 843 1064 822 q 1014 867 1064 867 l 1014 867 q 975 900 975 867 q 985 933 975 915 l 1063 1067 q 1072 1100 1072 1085 q 1035 1133 1072 1133 l 701 1133 q 642 1114 674 1133 q 596 1067 611 1094 l -49 -50 q -69 -125 -69 -85 q -61 -160 -69 -146 l 122 -472 q 143 -486 131 -486 q 188 -450 167 -486 l 869 733 z "},"u":{"ha":1136,"x_min":14,"x_max":1447,"o":"m 1076 733 q 1017 714 1049 733 q 971 667 986 694 l 663 133 q 616 86 647 106 q 557 67 585 67 q 519 100 519 67 q 529 133 519 115 l 838 667 q 847 700 847 685 q 810 733 847 733 l 476 733 q 417 714 449 733 q 371 667 386 694 l 24 67 q 14 33 14 49 q 53 0 14 0 l 986 0 q 1044 19 1013 0 q 1090 67 1075 39 l 1438 667 q 1447 700 1447 685 q 1410 733 1447 733 l 1076 733 z "},"v":{"ha":1128,"x_min":222,"x_max":1435,"o":"m 1064 733 q 1005 714 1036 733 q 958 667 974 694 l 650 133 q 603 86 635 106 q 546 67 572 67 q 507 100 507 67 q 517 133 507 115 l 825 667 q 835 700 835 685 q 797 733 835 733 l 464 733 q 405 714 436 733 q 358 667 374 694 l 243 467 q 222 392 222 431 q 231 357 222 369 l 414 43 q 507 0 440 0 l 974 0 q 1032 19 1001 0 q 1079 67 1063 39 l 1425 667 q 1435 700 1435 685 q 1397 733 1435 733 l 1064 733 z "},"w":{"ha":1696,"x_min":197,"x_max":2010,"o":"m 1638 733 q 1579 714 1610 733 q 1532 667 1549 694 l 1225 133 q 1178 86 1208 106 q 1119 67 1147 67 q 1082 100 1082 67 q 1092 133 1082 115 l 1400 667 q 1410 700 1410 685 q 1372 733 1410 733 l 1039 733 q 980 714 1011 733 q 933 667 949 694 l 625 133 q 578 86 610 106 q 519 67 547 67 q 482 100 482 67 q 492 133 482 115 l 800 667 q 810 700 810 685 q 772 733 810 733 l 439 733 q 380 714 411 733 q 333 667 349 694 l 218 467 q 197 392 197 431 q 204 357 197 369 l 415 0 l 1547 0 q 1606 19 1575 0 q 1653 67 1638 39 l 1999 667 q 2010 700 2010 685 q 1971 733 2010 733 l 1638 733 z "},"x":{"ha":1128,"x_min":7,"x_max":1440,"o":"m 276 400 q 218 381 249 400 q 171 333 188 361 l 17 67 q 7 33 7 49 q 46 0 7 0 l 379 0 q 437 19 406 0 q 483 67 468 39 l 600 267 q 646 314 615 294 q 704 333 676 333 q 742 300 742 333 q 732 267 742 285 l 617 67 q 607 33 607 49 q 644 0 607 0 l 978 0 q 1036 19 1006 0 q 1083 67 1067 39 l 1238 333 q 1247 367 1247 351 q 1208 400 1247 400 l 875 400 q 825 424 825 400 q 863 457 825 444 q 914 467 890 467 l 1247 467 q 1306 486 1275 467 q 1353 533 1336 506 l 1429 667 q 1440 700 1440 685 q 1401 733 1440 733 l 1068 733 q 1010 714 1040 733 q 963 667 979 694 l 925 600 q 878 553 908 572 q 819 533 847 533 l 819 533 q 781 567 781 533 q 792 600 781 582 l 829 667 q 840 700 840 685 q 801 733 840 733 l 468 733 q 410 714 440 733 q 363 667 379 694 l 286 533 q 276 500 276 515 q 314 467 276 467 l 647 467 q 697 443 697 467 q 661 410 697 422 q 608 400 633 400 l 276 400 z "},"y":{"ha":1146,"x_min":7,"x_max":1440,"o":"m 721 -474 q 742 -486 729 -486 q 786 -450 765 -486 l 1431 667 q 1440 700 1440 685 q 1403 733 1440 733 l 1069 733 q 1010 714 1042 733 q 964 667 979 694 l 656 133 q 609 86 640 106 q 550 67 578 67 l 550 67 q 513 100 513 67 q 522 133 513 115 l 831 667 q 840 700 840 685 q 803 733 840 733 l 469 733 q 410 714 442 733 q 364 667 379 694 l 17 67 q 7 33 7 49 q 46 0 7 0 l 513 0 q 553 -32 553 0 q 544 -58 553 -44 q 528 -122 528 -87 q 538 -160 528 -146 l 721 -474 z "},"z":{"ha":1146,"x_min":-7,"x_max":1426,"o":"m 536 67 q 499 100 499 67 q 508 133 499 115 l 586 267 q 632 314 601 294 q 690 333 663 333 l 690 333 l 1157 333 q 1216 353 1185 333 q 1263 400 1247 372 l 1417 667 q 1426 700 1426 685 q 1389 733 1426 733 l 456 733 q 403 724 431 733 q 367 690 367 711 q 417 667 367 667 l 883 667 q 921 633 921 667 q 911 600 921 618 l 835 467 q 788 419 818 439 q 729 400 757 400 l 729 400 l 263 400 q 204 381 235 400 q 157 333 174 361 l 3 67 q -7 33 -7 49 q 32 0 -7 0 l 965 0 q 1017 10 989 0 q 1053 43 1053 22 q 1003 67 1053 67 l 536 67 z "},"{":{"ha":1146,"x_min":31,"x_max":1318,"o":"m 1124 867 q 1170 914 1139 894 q 1229 933 1201 933 q 1281 943 1253 933 q 1318 976 1318 956 q 1267 1000 1318 1000 l 800 1000 q 742 981 774 1000 q 696 933 711 961 l 42 -200 q 31 -233 31 -218 q 69 -267 31 -267 l 536 -267 q 589 -257 560 -267 q 625 -224 625 -244 q 581 -201 625 -206 q 536 -167 536 -196 q 546 -133 536 -151 l 1124 867 z "},"|":{"ha":1146,"x_min":7,"x_max":1149,"o":"m 776 1000 q 718 981 749 1000 q 672 933 688 961 l 17 -200 q 7 -233 7 -218 q 46 -267 7 -267 l 379 -267 q 437 -247 406 -267 q 483 -200 468 -228 l 1139 933 q 1149 967 1149 951 q 1110 1000 1149 1000 l 776 1000 z "},"}":{"ha":1146,"x_min":11,"x_max":1297,"o":"m 792 1000 q 740 990 768 1000 q 703 957 703 978 q 747 935 703 940 q 792 900 792 929 q 782 867 792 885 l 204 -133 q 158 -181 189 -161 q 101 -200 126 -200 q 47 -210 75 -200 q 11 -243 11 -222 q 61 -267 11 -267 l 528 -267 q 585 -247 554 -267 q 632 -200 617 -228 l 1286 933 q 1297 967 1297 951 q 1258 1000 1297 1000 l 792 1000 z "},"~":{"ha":1146,"x_min":-10,"x_max":1269,"o":"m 897 668 q 839 649 869 668 q 793 601 808 629 l 754 535 q 707 488 738 507 q 649 468 676 468 l 649 468 l 182 468 q 124 449 154 468 q 76 401 93 429 l 0 268 q -10 235 -10 250 q 28 201 -10 201 l 361 201 q 420 221 389 201 q 467 268 451 240 l 506 335 q 552 382 521 363 q 610 401 583 401 l 610 401 l 1076 401 q 1135 421 1104 401 q 1182 468 1167 440 l 1260 601 q 1269 635 1269 619 q 1231 668 1269 668 l 897 668 z "},"Ä":{"ha":1146,"x_min":-4,"x_max":1583,"o":"m 1211 1000 q 1153 981 1185 1000 q 1107 933 1122 961 l 1068 867 q 1058 833 1058 849 q 1096 800 1058 800 l 1429 800 q 1488 819 1457 800 q 1535 867 1519 839 l 1574 933 q 1583 967 1583 951 q 1544 1000 1583 1000 l 1211 1000 m 974 933 q 983 967 983 951 q 944 1000 983 1000 l 611 1000 q 553 981 585 1000 q 507 933 522 961 l 468 867 q 458 833 458 849 q 496 800 458 800 l 829 800 q 888 819 857 800 q 935 867 919 839 l 974 933 m 925 733 l 458 733 q 399 714 431 733 q 353 667 368 694 l 275 533 q 265 500 265 515 q 304 467 265 467 l 638 467 q 696 486 665 467 q 742 533 726 506 l 781 600 q 828 647 797 628 q 886 667 858 667 l 886 667 q 925 633 925 667 q 914 600 925 618 l 838 467 q 790 419 821 439 q 732 400 760 400 l 732 400 l 265 400 q 207 381 238 400 q 160 333 176 361 l 6 67 q -4 33 -4 49 q 35 0 -4 0 l 968 0 q 1026 19 996 0 q 1072 67 1057 39 l 1419 667 q 1429 700 1429 685 q 1392 733 1429 733 l 925 733 m 644 133 q 598 86 629 106 q 539 67 567 67 l 539 67 q 501 100 501 67 q 511 133 501 115 l 589 267 q 635 314 604 294 q 693 333 667 333 l 693 333 q 732 300 732 333 q 722 267 732 285 l 644 133 z "},"Å":{"ha":1146,"x_min":7,"x_max":1594,"o":"m 624 1000 q 565 981 596 1000 q 518 933 533 961 l 479 867 q 469 833 469 849 q 508 800 469 800 l 1442 800 q 1499 819 1468 800 q 1546 867 1531 839 l 1585 933 q 1594 967 1594 951 q 1557 1000 1594 1000 l 624 1000 m 1013 867 l 1013 867 q 963 890 963 867 q 999 924 963 911 q 1051 933 1028 933 l 1051 933 q 1101 910 1101 933 q 1065 876 1101 889 q 1013 867 1036 867 m 936 733 l 469 733 q 411 714 442 733 q 364 667 381 694 l 288 533 q 276 500 276 515 q 315 467 276 467 l 649 467 q 707 486 676 467 q 754 533 738 506 l 792 600 q 839 647 808 628 q 897 667 869 667 l 897 667 q 936 633 936 667 q 925 600 936 618 l 849 467 q 802 419 833 439 q 743 400 771 400 l 743 400 l 276 400 q 218 381 249 400 q 172 333 188 361 l 18 67 q 7 33 7 49 q 46 0 7 0 l 979 0 q 1038 19 1007 0 q 1085 67 1068 39 l 1431 667 q 1442 700 1442 685 q 1403 733 1442 733 l 936 733 m 656 133 q 609 86 640 106 q 551 67 578 67 l 551 67 q 513 100 513 67 q 522 133 513 115 l 600 267 q 647 314 615 294 q 706 333 678 333 l 706 333 q 743 300 743 333 q 733 267 743 285 l 656 133 z "},"Ç":{"ha":1146,"x_min":-4,"x_max":1429,"o":"m 1238 467 q 1296 486 1265 467 q 1343 533 1326 506 l 1419 667 q 1429 700 1429 685 q 1392 733 1429 733 l 458 733 q 399 714 431 733 q 353 667 368 694 l 7 67 q -4 33 -4 49 q 35 0 -4 0 q 126 -43 101 0 l 311 -357 q 332 -369 319 -369 q 375 -333 354 -369 l 529 -67 q 576 -19 546 -39 q 635 0 607 0 l 968 0 q 1026 19 996 0 q 1074 67 1057 39 l 1226 333 q 1238 367 1238 351 q 1199 400 1238 400 l 865 400 q 807 381 838 400 q 760 333 776 361 l 644 133 q 598 86 629 106 q 540 67 567 67 q 501 100 501 67 q 511 133 501 115 l 781 600 q 828 647 797 628 q 886 667 858 667 q 925 633 925 667 q 914 600 925 618 l 876 533 q 865 500 865 515 q 904 467 865 467 l 1238 467 z "},"É":{"ha":1146,"x_min":4,"x_max":1438,"o":"m 701 333 l 1168 333 q 1227 353 1196 333 q 1274 400 1258 372 l 1428 667 q 1438 700 1438 685 q 1400 733 1438 733 q 1307 776 1333 733 l 1122 1090 q 1103 1103 1115 1103 q 1058 1067 1079 1103 l 904 800 q 858 753 889 772 q 800 733 828 733 l 467 733 q 408 714 439 733 q 361 667 376 694 l 15 67 q 4 33 4 49 q 43 0 4 0 l 976 0 q 1035 19 1004 0 q 1082 67 1065 39 l 1158 200 q 1168 233 1168 218 q 1131 267 1168 267 l 797 267 q 738 247 769 267 q 692 200 707 228 l 653 133 q 606 86 638 106 q 549 67 575 67 q 510 100 510 67 q 519 133 510 115 l 597 267 q 644 314 613 294 q 701 333 675 333 m 789 600 q 836 647 806 628 q 894 667 867 667 q 933 633 933 667 q 922 600 933 618 l 846 467 q 799 419 829 439 q 740 400 768 400 q 703 433 703 400 q 713 467 703 449 l 789 600 z "},"Ñ":{"ha":1146,"x_min":13,"x_max":1676,"o":"m 940 733 l 474 733 q 415 714 446 733 q 368 667 385 694 l 22 67 q 13 33 13 49 q 50 0 13 0 l 383 0 q 442 19 411 0 q 489 67 474 39 l 797 600 q 844 647 813 628 q 901 667 875 667 l 901 667 q 940 633 940 667 q 931 600 940 618 l 622 67 q 613 33 613 49 q 650 0 613 0 l 983 0 q 1042 19 1011 0 q 1089 67 1074 39 l 1435 667 q 1446 700 1446 685 q 1407 733 1446 733 l 940 733 m 1304 1133 q 1247 1114 1278 1133 q 1200 1067 1215 1094 l 1200 1067 q 1153 1019 1183 1039 q 1094 1000 1122 1000 l 1094 1000 l 628 1000 q 569 981 600 1000 q 522 933 539 961 l 485 867 q 474 833 474 849 q 513 800 474 800 l 846 800 q 904 819 874 800 q 951 867 935 839 l 951 867 q 997 914 967 894 q 1056 933 1028 933 l 1056 933 l 1522 933 q 1581 953 1550 933 q 1628 1000 1613 972 l 1667 1067 q 1676 1100 1676 1085 q 1638 1133 1676 1133 l 1304 1133 z "},"Ö":{"ha":1146,"x_min":-10,"x_max":1578,"o":"m 918 733 l 451 733 q 393 714 424 733 q 346 667 363 694 l 0 67 q -10 33 -10 49 q 28 0 -10 0 l 961 0 q 1020 19 989 0 q 1067 67 1051 39 l 1413 667 q 1424 700 1424 685 q 1385 733 1424 733 l 918 733 m 639 133 q 592 86 622 106 q 533 67 561 67 l 533 67 q 494 100 494 67 q 506 133 494 115 l 775 600 q 822 647 790 628 q 879 667 853 667 l 879 667 q 918 633 918 667 q 908 600 918 618 l 639 133 m 1206 1000 q 1147 981 1178 1000 q 1100 933 1117 961 l 1063 867 q 1051 833 1051 849 q 1090 800 1051 800 l 1424 800 q 1482 819 1451 800 q 1529 867 1513 839 l 1567 933 q 1578 967 1578 951 q 1539 1000 1578 1000 l 1206 1000 m 967 933 q 978 967 978 951 q 939 1000 978 1000 l 606 1000 q 547 981 578 1000 q 500 933 517 961 l 463 867 q 451 833 451 849 q 490 800 451 800 l 824 800 q 882 819 851 800 q 929 867 913 839 l 967 933 z "},"Ü":{"ha":1146,"x_min":-10,"x_max":1578,"o":"m 918 733 l 451 733 q 393 714 424 733 q 346 667 363 694 l 0 67 q -10 33 -10 49 q 28 0 -10 0 l 961 0 q 1020 19 989 0 q 1067 67 1051 39 l 1413 667 q 1424 700 1424 685 q 1385 733 1424 733 l 918 733 m 639 133 q 592 86 622 106 q 533 67 561 67 l 533 67 q 494 100 494 67 q 506 133 494 115 l 775 600 q 822 647 790 628 q 879 667 853 667 l 879 667 q 918 633 918 667 q 908 600 918 618 l 639 133 m 1206 1000 q 1147 981 1178 1000 q 1100 933 1117 961 l 1063 867 q 1051 833 1051 849 q 1090 800 1051 800 l 1424 800 q 1482 819 1451 800 q 1529 867 1513 839 l 1567 933 q 1578 967 1578 951 q 1539 1000 1578 1000 l 1206 1000 m 967 933 q 978 967 978 951 q 939 1000 978 1000 l 606 1000 q 547 981 578 1000 q 500 933 517 961 l 463 867 q 451 833 451 849 q 490 800 451 800 l 824 800 q 882 819 851 800 q 929 867 913 839 l 967 933 z "},"á":{"ha":1146,"x_min":-10,"x_max":1425,"o":"m 1386 733 q 1294 776 1319 733 l 1110 1090 q 1089 1103 1101 1103 q 1044 1067 1065 1103 l 892 800 q 844 753 875 772 q 786 733 814 733 l 453 733 q 394 714 425 733 q 347 667 364 694 l 271 533 q 260 500 260 515 q 299 467 260 467 l 632 467 q 690 486 660 467 q 738 533 721 506 l 775 600 q 822 647 792 628 q 881 667 853 667 l 881 667 q 919 633 919 667 q 908 600 919 618 l 832 467 q 785 419 817 439 q 726 400 754 400 l 726 400 l 260 400 q 202 381 233 400 q 156 333 171 361 l 1 67 q -10 33 -10 49 q 29 0 -10 0 l 963 0 q 1021 19 990 0 q 1068 67 1051 39 l 1414 667 q 1425 700 1425 685 q 1386 733 1425 733 m 640 133 q 593 86 624 106 q 535 67 563 67 l 535 67 q 496 100 496 67 q 506 133 496 115 l 583 267 q 630 314 599 294 q 689 333 661 333 l 689 333 q 726 300 726 333 q 717 267 726 285 l 640 133 z "},"à":{"ha":1146,"x_min":-10,"x_max":1424,"o":"m 1385 733 q 1293 776 1318 733 l 1108 1090 q 1088 1103 1100 1103 q 1044 1067 1065 1103 l 890 800 q 843 753 874 772 q 785 733 813 733 l 451 733 q 393 714 424 733 q 346 667 363 694 l 269 533 q 260 500 260 515 q 297 467 260 467 l 631 467 q 690 486 658 467 q 736 533 721 506 l 775 600 q 822 647 790 628 q 879 667 853 667 l 879 667 q 918 633 918 667 q 908 600 918 618 l 831 467 q 784 419 815 439 q 726 400 753 400 l 726 400 l 260 400 q 201 381 232 400 q 154 333 169 361 l 0 67 q -10 33 -10 49 q 28 0 -10 0 l 961 0 q 1020 19 989 0 q 1067 67 1051 39 l 1413 667 q 1424 700 1424 685 q 1385 733 1424 733 m 639 133 q 592 86 622 106 q 533 67 561 67 l 533 67 q 494 100 494 67 q 506 133 494 115 l 582 267 q 629 314 599 294 q 688 333 660 333 l 688 333 q 726 300 726 333 q 715 267 726 285 l 639 133 z "},"â":{"ha":1146,"x_min":-10,"x_max":1654,"o":"m 1282 1133 q 1236 1106 1236 1133 q 1242 1090 1236 1099 l 1426 776 q 1446 764 1433 764 q 1490 800 1469 764 l 1644 1067 q 1654 1100 1654 1085 q 1615 1133 1654 1133 l 1282 1133 m 815 1133 q 769 1106 769 1133 q 775 1090 769 1099 l 960 776 q 979 764 967 764 q 1024 800 1003 764 l 1178 1067 q 1188 1100 1188 1085 q 1149 1133 1188 1133 l 815 1133 m 918 733 l 451 733 q 393 714 424 733 q 346 667 363 694 l 269 533 q 260 500 260 515 q 297 467 260 467 l 631 467 q 690 486 658 467 q 736 533 721 506 l 775 600 q 822 647 790 628 q 879 667 853 667 l 879 667 q 918 633 918 667 q 908 600 918 618 l 831 467 q 784 419 815 439 q 726 400 753 400 l 726 400 l 260 400 q 201 381 232 400 q 154 333 169 361 l 0 67 q -10 33 -10 49 q 28 0 -10 0 l 961 0 q 1020 19 989 0 q 1067 67 1051 39 l 1413 667 q 1424 700 1424 685 q 1385 733 1424 733 l 918 733 m 639 133 q 592 86 622 106 q 533 67 561 67 l 533 67 q 494 100 494 67 q 506 133 494 115 l 582 267 q 629 314 599 294 q 688 333 660 333 l 688 333 q 726 300 726 333 q 715 267 726 285 l 639 133 z "},"ä":{"ha":1104,"x_min":-7,"x_max":1581,"o":"m 1208 1000 q 1151 981 1182 1000 q 1104 933 1119 961 l 1065 867 q 1056 833 1056 849 q 1093 800 1056 800 l 1426 800 q 1485 819 1454 800 q 1532 867 1517 839 l 1571 933 q 1581 967 1581 951 q 1542 1000 1581 1000 l 1208 1000 m 971 933 q 981 967 981 951 q 942 1000 981 1000 l 608 1000 q 551 981 582 1000 q 504 933 519 961 l 465 867 q 456 833 456 849 q 493 800 456 800 l 826 800 q 885 819 854 800 q 932 867 917 839 l 971 933 m 922 733 l 456 733 q 397 714 428 733 q 350 667 365 694 l 272 533 q 263 500 263 515 q 301 467 263 467 l 635 467 q 692 486 661 467 q 739 533 724 506 l 778 600 q 825 647 794 628 q 883 667 856 667 l 883 667 q 921 633 921 667 q 911 600 921 618 l 835 467 q 788 419 818 439 q 729 400 757 400 l 729 400 l 263 400 q 204 381 235 400 q 157 333 174 361 l 3 67 q -7 33 -7 49 q 32 0 -7 0 l 965 0 q 1023 19 992 0 q 1069 67 1054 39 l 1417 667 q 1426 700 1426 685 q 1389 733 1426 733 l 922 733 m 642 133 q 595 86 626 106 q 536 67 564 67 l 536 67 q 499 100 499 67 q 508 133 499 115 l 586 267 q 632 314 601 294 q 690 333 663 333 l 690 333 q 729 300 729 333 q 719 267 729 285 l 642 133 z "},"ã":{"ha":1146,"x_min":-10,"x_max":1654,"o":"m 1282 1133 q 1224 1114 1256 1133 q 1178 1067 1193 1094 l 1178 1067 q 1131 1019 1161 1039 q 1072 1000 1100 1000 l 1072 1000 l 606 1000 q 547 981 578 1000 q 500 933 517 961 l 463 867 q 451 833 451 849 q 490 800 451 800 l 824 800 q 882 819 851 800 q 929 867 913 839 l 929 867 q 975 914 944 894 q 1033 933 1006 933 l 1033 933 l 1500 933 q 1559 953 1528 933 q 1606 1000 1590 972 l 1644 1067 q 1654 1100 1654 1085 q 1615 1133 1654 1133 l 1282 1133 m 918 733 l 451 733 q 393 714 424 733 q 346 667 363 694 l 269 533 q 260 500 260 515 q 297 467 260 467 l 631 467 q 690 486 658 467 q 736 533 721 506 l 775 600 q 822 647 790 628 q 879 667 853 667 l 879 667 q 918 633 918 667 q 908 600 918 618 l 831 467 q 784 419 815 439 q 726 400 753 400 l 726 400 l 260 400 q 201 381 232 400 q 154 333 169 361 l 0 67 q -10 33 -10 49 q 28 0 -10 0 l 961 0 q 1020 19 989 0 q 1067 67 1051 39 l 1413 667 q 1424 700 1424 685 q 1385 733 1424 733 l 918 733 m 639 133 q 592 86 622 106 q 533 67 561 67 l 533 67 q 494 100 494 67 q 506 133 494 115 l 582 267 q 629 314 599 294 q 688 333 660 333 l 688 333 q 726 300 726 333 q 715 267 726 285 l 639 133 z "},"å":{"ha":1118,"x_min":-7,"x_max":1581,"o":"m 608 1000 q 551 981 582 1000 q 504 933 519 961 l 465 867 q 456 833 456 849 q 493 800 456 800 l 1426 800 q 1485 819 1454 800 q 1532 867 1517 839 l 1571 933 q 1581 967 1581 951 q 1542 1000 1581 1000 l 608 1000 m 999 867 l 999 867 q 949 890 949 867 q 985 924 949 911 q 1038 933 1013 933 l 1038 933 q 1088 910 1088 933 q 1051 876 1088 889 q 999 867 1022 867 m 922 733 l 456 733 q 397 714 428 733 q 350 667 365 694 l 272 533 q 263 500 263 515 q 301 467 263 467 l 635 467 q 692 486 661 467 q 739 533 724 506 l 778 600 q 825 647 794 628 q 883 667 856 667 l 883 667 q 921 633 921 667 q 911 600 921 618 l 835 467 q 788 419 818 439 q 729 400 757 400 l 729 400 l 263 400 q 204 381 235 400 q 157 333 174 361 l 3 67 q -7 33 -7 49 q 32 0 -7 0 l 965 0 q 1023 19 992 0 q 1069 67 1054 39 l 1417 667 q 1426 700 1426 685 q 1389 733 1426 733 l 922 733 m 642 133 q 595 86 626 106 q 536 67 564 67 l 536 67 q 499 100 499 67 q 508 133 499 115 l 586 267 q 632 314 601 294 q 690 333 663 333 l 690 333 q 729 300 729 333 q 719 267 729 285 l 642 133 z "},"ç":{"ha":1146,"x_min":-10,"x_max":1424,"o":"m 1231 467 q 1290 486 1258 467 q 1336 533 1321 506 l 1413 667 q 1424 700 1424 685 q 1385 733 1424 733 l 451 733 q 393 714 424 733 q 346 667 363 694 l 0 67 q -10 33 -10 49 q 28 0 -10 0 q 121 -43 94 0 l 306 -357 q 325 -369 313 -369 q 369 -333 349 -369 l 524 -67 q 569 -19 539 -39 q 628 0 600 0 l 961 0 q 1020 19 989 0 q 1067 67 1051 39 l 1221 333 q 1231 367 1231 351 q 1193 400 1231 400 l 860 400 q 801 381 832 400 q 754 333 769 361 l 639 133 q 592 86 622 106 q 533 67 561 67 q 494 100 494 67 q 506 133 494 115 l 775 600 q 822 647 790 628 q 879 667 853 667 q 918 633 918 667 q 908 600 918 618 l 869 533 q 860 500 860 515 q 897 467 860 467 l 1231 467 z "},"é":{"ha":1146,"x_min":-10,"x_max":1424,"o":"m 688 333 l 1154 333 q 1213 353 1182 333 q 1260 400 1243 372 l 1413 667 q 1424 700 1424 685 q 1385 733 1424 733 l 1385 733 q 1293 776 1318 733 l 1108 1090 q 1088 1103 1100 1103 q 1044 1067 1065 1103 l 890 800 q 843 753 874 772 q 785 733 813 733 l 451 733 q 393 714 424 733 q 346 667 363 694 l 0 67 q -10 33 -10 49 q 28 0 -10 0 l 961 0 q 1020 19 989 0 q 1067 67 1051 39 l 1143 200 q 1154 233 1154 218 q 1115 267 1154 267 l 782 267 q 724 247 754 267 q 676 200 693 228 l 639 133 q 592 86 622 106 q 533 67 561 67 l 533 67 q 494 100 494 67 q 506 133 494 115 l 582 267 q 629 314 599 294 q 688 333 660 333 m 775 600 q 822 647 790 628 q 879 667 853 667 l 879 667 q 918 633 918 667 q 908 600 918 618 l 831 467 q 784 419 815 439 q 726 400 753 400 l 726 400 q 688 433 688 400 q 697 467 688 449 l 775 600 z "},"è":{"ha":1146,"x_min":-10,"x_max":1424,"o":"m 688 333 l 1154 333 q 1213 353 1182 333 q 1260 400 1243 372 l 1413 667 q 1424 700 1424 685 q 1385 733 1424 733 q 1293 776 1318 733 l 1108 1090 q 1088 1103 1100 1103 q 1044 1067 1065 1103 l 890 800 q 843 753 874 772 q 785 733 813 733 l 451 733 q 393 714 424 733 q 346 667 363 694 l 0 67 q -10 33 -10 49 q 28 0 -10 0 l 961 0 q 1020 19 989 0 q 1067 67 1051 39 l 1143 200 q 1154 233 1154 218 q 1115 267 1154 267 l 782 267 q 724 247 754 267 q 676 200 693 228 l 639 133 q 592 86 622 106 q 533 67 561 67 q 494 100 494 67 q 506 133 494 115 l 582 267 q 629 314 599 294 q 688 333 660 333 m 775 600 q 822 647 790 628 q 879 667 853 667 q 918 633 918 667 q 908 600 918 618 l 831 467 q 784 419 815 439 q 726 400 753 400 q 688 433 688 400 q 697 467 688 449 l 775 600 z "},"ê":{"ha":1146,"x_min":-10,"x_max":1433,"o":"m 688 333 l 1154 333 q 1213 353 1182 333 q 1260 400 1243 372 l 1413 667 q 1433 742 1433 703 q 1426 776 1433 764 l 1242 1090 q 1221 1103 1233 1103 q 1178 1067 1199 1103 l 1024 800 q 979 764 1003 764 q 960 776 967 764 l 775 1090 q 754 1103 767 1103 q 711 1067 732 1103 l 557 800 q 510 753 540 772 q 451 733 479 733 l 451 733 q 393 714 424 733 q 346 667 363 694 l 0 67 q -10 33 -10 49 q 28 0 -10 0 l 961 0 q 1020 19 989 0 q 1067 67 1051 39 l 1143 200 q 1154 233 1154 218 q 1115 267 1154 267 l 782 267 q 724 247 754 267 q 676 200 693 228 l 639 133 q 592 86 622 106 q 533 67 561 67 l 533 67 q 494 100 494 67 q 506 133 494 115 l 582 267 q 629 314 599 294 q 688 333 660 333 l 688 333 m 831 467 q 784 419 815 439 q 726 400 753 400 l 726 400 q 688 433 688 400 q 697 467 688 449 l 775 600 q 822 647 790 628 q 879 667 853 667 l 879 667 q 918 633 918 667 q 908 600 918 618 l 831 467 z "},"ë":{"ha":1146,"x_min":-10,"x_max":1578,"o":"m 918 733 l 451 733 q 393 714 424 733 q 346 667 363 694 l 0 67 q -10 33 -10 49 q 28 0 -10 0 l 961 0 q 1020 19 989 0 q 1067 67 1051 39 l 1143 200 q 1154 233 1154 218 q 1115 267 1154 267 l 782 267 q 724 247 754 267 q 676 200 693 228 l 639 133 q 592 86 622 106 q 533 67 561 67 l 533 67 q 494 100 494 67 q 506 133 494 115 l 582 267 q 629 314 599 294 q 688 333 660 333 l 688 333 l 1154 333 q 1213 353 1182 333 q 1260 400 1243 372 l 1413 667 q 1424 700 1424 685 q 1385 733 1424 733 l 918 733 m 831 467 q 784 419 815 439 q 726 400 753 400 l 726 400 q 688 433 688 400 q 697 467 688 449 l 775 600 q 822 647 790 628 q 879 667 853 667 l 879 667 q 918 633 918 667 q 908 600 918 618 l 831 467 m 1206 1000 q 1147 981 1178 1000 q 1100 933 1117 961 l 1063 867 q 1051 833 1051 849 q 1090 800 1051 800 l 1424 800 q 1482 819 1451 800 q 1529 867 1513 839 l 1567 933 q 1578 967 1578 951 q 1539 1000 1578 1000 l 1206 1000 m 967 933 q 978 967 978 951 q 939 1000 978 1000 l 606 1000 q 547 981 578 1000 q 500 933 517 961 l 463 867 q 451 833 451 849 q 490 800 451 800 l 824 800 q 882 819 851 800 q 929 867 913 839 l 967 933 z "},"í":{"ha":1146,"x_min":-10,"x_max":869,"o":"m 681 1157 q 660 1169 672 1169 q 615 1133 636 1169 l 463 867 q 451 833 451 849 q 490 800 451 800 l 824 800 q 869 828 869 800 q 864 843 869 836 l 681 1157 m 0 67 q -10 33 -10 49 q 28 0 -10 0 l 361 0 q 420 19 389 0 q 467 67 451 39 l 813 667 q 824 700 824 685 q 785 733 824 733 l 451 733 q 393 714 424 733 q 346 667 363 694 l 0 67 z "},"ì":{"ha":1146,"x_min":-10,"x_max":869,"o":"m 681 1157 q 660 1169 672 1169 q 615 1133 636 1169 l 463 867 q 451 833 451 849 q 490 800 451 800 l 824 800 q 869 828 869 800 q 864 843 869 836 l 681 1157 m 0 67 q -10 33 -10 49 q 28 0 -10 0 l 361 0 q 420 19 389 0 q 467 67 451 39 l 813 667 q 824 700 824 685 q 785 733 824 733 l 451 733 q 393 714 424 733 q 346 667 363 694 l 0 67 z "},"î":{"ha":1146,"x_min":-10,"x_max":1151,"o":"m 781 1303 q 735 1275 735 1303 q 739 1260 735 1267 l 924 946 q 944 933 931 933 q 988 969 967 933 l 1142 1236 q 1151 1269 1151 1254 q 1114 1303 1151 1303 l 781 1303 m 463 867 q 451 833 451 849 q 490 800 451 800 l 824 800 q 869 828 869 800 q 864 843 869 836 l 681 1157 q 660 1169 672 1169 q 615 1133 636 1169 l 463 867 m 0 67 q -10 33 -10 49 q 28 0 -10 0 l 361 0 q 420 19 389 0 q 467 67 451 39 l 813 667 q 824 700 824 685 q 785 733 824 733 l 451 733 q 393 714 424 733 q 346 667 363 694 l 0 67 z "},"ï":{"ha":1146,"x_min":-10,"x_max":1151,"o":"m 781 1303 q 735 1275 735 1303 q 739 1260 735 1267 l 924 946 q 944 933 931 933 q 988 969 967 933 l 1142 1236 q 1151 1269 1151 1254 q 1114 1303 1151 1303 l 781 1303 m 463 867 q 451 833 451 849 q 490 800 451 800 l 824 800 q 869 828 869 800 q 864 843 869 836 l 681 1157 q 660 1169 672 1169 q 615 1133 636 1169 l 463 867 m 0 67 q -10 33 -10 49 q 28 0 -10 0 l 361 0 q 420 19 389 0 q 467 67 451 39 l 813 667 q 824 700 824 685 q 785 733 824 733 l 451 733 q 393 714 424 733 q 346 667 363 694 l 0 67 z "},"ñ":{"ha":1146,"x_min":-10,"x_max":1654,"o":"m 918 733 l 451 733 q 393 714 424 733 q 346 667 363 694 l 0 67 q -10 33 -10 49 q 28 0 -10 0 l 361 0 q 420 19 389 0 q 467 67 451 39 l 775 600 q 822 647 790 628 q 879 667 853 667 l 879 667 q 918 633 918 667 q 908 600 918 618 l 600 67 q 590 33 590 49 q 628 0 590 0 l 961 0 q 1020 19 989 0 q 1067 67 1051 39 l 1413 667 q 1424 700 1424 685 q 1385 733 1424 733 l 918 733 m 1282 1133 q 1224 1114 1256 1133 q 1178 1067 1193 1094 l 1178 1067 q 1131 1019 1161 1039 q 1072 1000 1100 1000 l 1072 1000 l 606 1000 q 547 981 578 1000 q 500 933 517 961 l 463 867 q 451 833 451 849 q 490 800 451 800 l 824 800 q 882 819 851 800 q 929 867 913 839 l 929 867 q 975 914 944 894 q 1033 933 1006 933 l 1033 933 l 1500 933 q 1559 953 1528 933 q 1606 1000 1590 972 l 1644 1067 q 1654 1100 1654 1085 q 1615 1133 1654 1133 l 1282 1133 z "},"ó":{"ha":1146,"x_min":-10,"x_max":1424,"o":"m 1385 733 q 1293 776 1318 733 l 1108 1090 q 1088 1103 1100 1103 q 1044 1067 1065 1103 l 890 800 q 843 753 874 772 q 785 733 813 733 l 451 733 q 393 714 424 733 q 346 667 363 694 l 0 67 q -10 33 -10 49 q 28 0 -10 0 l 961 0 q 1020 19 989 0 q 1067 67 1051 39 l 1413 667 q 1424 700 1424 685 q 1385 733 1424 733 m 639 133 q 592 86 622 106 q 533 67 561 67 l 533 67 q 494 100 494 67 q 506 133 494 115 l 775 600 q 822 647 790 628 q 879 667 853 667 l 879 667 q 918 633 918 667 q 908 600 918 618 l 639 133 z "},"ò":{"ha":1146,"x_min":-10,"x_max":1424,"o":"m 1385 733 q 1293 776 1318 733 l 1108 1090 q 1088 1103 1100 1103 q 1044 1067 1065 1103 l 890 800 q 843 753 874 772 q 785 733 813 733 l 451 733 q 393 714 424 733 q 346 667 363 694 l 0 67 q -10 33 -10 49 q 28 0 -10 0 l 961 0 q 1020 19 989 0 q 1067 67 1051 39 l 1413 667 q 1424 700 1424 685 q 1385 733 1424 733 m 639 133 q 592 86 622 106 q 533 67 561 67 l 533 67 q 494 100 494 67 q 506 133 494 115 l 775 600 q 822 647 790 628 q 879 667 853 667 l 879 667 q 918 633 918 667 q 908 600 918 618 l 639 133 z "},"ô":{"ha":1146,"x_min":4,"x_max":1449,"o":"m 1256 1090 q 1236 1103 1249 1103 q 1192 1067 1213 1103 l 1038 800 q 993 764 1017 764 q 974 776 981 764 l 789 1090 q 769 1103 782 1103 q 725 1067 746 1103 l 571 800 q 466 733 543 750 q 361 667 389 717 l 14 67 q 4 33 4 49 q 43 0 4 0 l 976 0 q 1034 19 1003 0 q 1081 67 1065 39 l 1428 667 q 1449 742 1449 703 q 1440 776 1449 764 l 1256 1090 m 653 133 q 606 86 638 106 q 547 67 575 67 q 510 100 510 67 q 519 133 510 115 l 789 600 q 835 647 804 628 q 894 667 867 667 q 932 633 932 667 q 922 600 932 618 l 653 133 z "},"ö":{"ha":1146,"x_min":-10,"x_max":1578,"o":"m 918 733 l 451 733 q 393 714 424 733 q 346 667 363 694 l 0 67 q -10 33 -10 49 q 28 0 -10 0 l 961 0 q 1020 19 989 0 q 1067 67 1051 39 l 1413 667 q 1424 700 1424 685 q 1385 733 1424 733 l 918 733 m 639 133 q 592 86 622 106 q 533 67 561 67 l 533 67 q 494 100 494 67 q 506 133 494 115 l 775 600 q 822 647 790 628 q 879 667 853 667 l 879 667 q 918 633 918 667 q 908 600 918 618 l 639 133 m 1206 1000 q 1147 981 1178 1000 q 1100 933 1117 961 l 1063 867 q 1051 833 1051 849 q 1090 800 1051 800 l 1424 800 q 1482 819 1451 800 q 1529 867 1513 839 l 1567 933 q 1578 967 1578 951 q 1539 1000 1578 1000 l 1206 1000 m 967 933 q 978 967 978 951 q 939 1000 978 1000 l 606 1000 q 547 981 578 1000 q 500 933 517 961 l 463 867 q 451 833 451 849 q 490 800 451 800 l 824 800 q 882 819 851 800 q 929 867 913 839 l 967 933 z "},"õ":{"ha":1146,"x_min":-10,"x_max":1654,"o":"m 918 733 l 451 733 q 393 714 424 733 q 346 667 363 694 l 0 67 q -10 33 -10 49 q 28 0 -10 0 l 961 0 q 1020 19 989 0 q 1067 67 1051 39 l 1413 667 q 1424 700 1424 685 q 1385 733 1424 733 l 918 733 m 639 133 q 592 86 622 106 q 533 67 561 67 l 533 67 q 494 100 494 67 q 506 133 494 115 l 775 600 q 822 647 790 628 q 879 667 853 667 l 879 667 q 918 633 918 667 q 908 600 918 618 l 639 133 m 1282 1133 q 1224 1114 1256 1133 q 1178 1067 1193 1094 l 1178 1067 q 1131 1019 1161 1039 q 1072 1000 1100 1000 l 1072 1000 l 606 1000 q 547 981 578 1000 q 500 933 517 961 l 463 867 q 451 833 451 849 q 490 800 451 800 l 824 800 q 882 819 851 800 q 929 867 913 839 l 929 867 q 975 914 944 894 q 1033 933 1006 933 l 1033 933 l 1500 933 q 1559 953 1528 933 q 1606 1000 1590 972 l 1644 1067 q 1654 1100 1654 1085 q 1615 1133 1654 1133 l 1282 1133 z "},"ú":{"ha":1146,"x_min":-10,"x_max":1424,"o":"m 1051 733 q 993 714 1024 733 q 946 667 963 694 l 639 133 q 592 86 622 106 q 533 67 561 67 l 533 67 q 494 100 494 67 q 506 133 494 115 l 813 667 q 824 700 824 685 q 785 733 824 733 l 451 733 q 393 714 424 733 q 346 667 363 694 l 0 67 q -10 33 -10 49 q 28 0 -10 0 l 961 0 q 1020 19 989 0 q 1067 67 1051 39 l 1413 667 q 1424 700 1424 685 q 1385 733 1424 733 l 1051 733 m 1147 1157 q 1126 1169 1139 1169 q 1082 1133 1103 1169 l 929 867 q 918 833 918 849 q 957 800 918 800 l 1290 800 q 1336 828 1336 800 q 1331 843 1336 836 l 1147 1157 z "},"ù":{"ha":1146,"x_min":-10,"x_max":1424,"o":"m 1051 733 q 993 714 1024 733 q 946 667 963 694 l 639 133 q 592 86 622 106 q 533 67 561 67 l 533 67 q 494 100 494 67 q 506 133 494 115 l 813 667 q 824 700 824 685 q 785 733 824 733 l 451 733 q 393 714 424 733 q 346 667 363 694 l 0 67 q -10 33 -10 49 q 28 0 -10 0 l 961 0 q 1020 19 989 0 q 1067 67 1051 39 l 1413 667 q 1424 700 1424 685 q 1385 733 1424 733 l 1051 733 m 1147 1157 q 1126 1169 1139 1169 q 1082 1133 1103 1169 l 929 867 q 918 833 918 849 q 957 800 918 800 l 1290 800 q 1336 828 1336 800 q 1331 843 1336 836 l 1147 1157 z "},"û":{"ha":1146,"x_min":-10,"x_max":1469,"o":"m 639 133 q 592 86 622 106 q 533 67 561 67 q 494 100 494 67 q 506 133 494 115 l 813 667 q 824 700 824 685 q 785 733 824 733 l 451 733 q 393 714 424 733 q 346 667 363 694 l 0 67 q -10 33 -10 49 q 28 0 -10 0 l 961 0 q 1020 19 989 0 q 1067 67 1051 39 l 1413 667 q 1424 700 1424 685 q 1385 733 1424 733 l 1051 733 q 993 714 1024 733 q 946 667 963 694 l 639 133 m 1281 1157 q 1260 1169 1272 1169 q 1215 1133 1236 1169 l 1063 867 q 1051 833 1051 849 q 1090 800 1051 800 l 1424 800 q 1469 828 1469 800 q 1464 843 1469 836 l 1281 1157 m 814 1157 q 793 1169 806 1169 q 749 1133 769 1169 l 596 867 q 585 833 585 849 q 624 800 585 800 l 957 800 q 1003 828 1003 800 q 997 843 1003 836 l 814 1157 z "},"ü":{"ha":1146,"x_min":-10,"x_max":1578,"o":"m 639 133 q 592 86 622 106 q 533 67 561 67 l 533 67 q 494 100 494 67 q 506 133 494 115 l 813 667 q 824 700 824 685 q 785 733 824 733 l 451 733 q 393 714 424 733 q 346 667 363 694 l 0 67 q -10 33 -10 49 q 28 0 -10 0 l 961 0 q 1020 19 989 0 q 1067 67 1051 39 l 1413 667 q 1424 700 1424 685 q 1385 733 1424 733 l 1051 733 q 993 714 1024 733 q 946 667 963 694 l 639 133 m 1206 1000 q 1147 981 1178 1000 q 1100 933 1117 961 l 1063 867 q 1051 833 1051 849 q 1090 800 1051 800 l 1424 800 q 1482 819 1451 800 q 1529 867 1513 839 l 1567 933 q 1578 967 1578 951 q 1539 1000 1578 1000 l 1206 1000 m 967 933 q 978 967 978 951 q 939 1000 978 1000 l 606 1000 q 547 981 578 1000 q 500 933 517 961 l 463 867 q 451 833 451 849 q 490 800 451 800 l 824 800 q 882 819 851 800 q 929 867 913 839 l 967 933 z "},"†":{"ha":1146,"x_min":-8,"x_max":1290,"o":"m 1281 667 q 1290 700 1290 685 q 1251 733 1290 733 l 1085 733 q 1047 767 1047 733 q 1057 800 1047 782 l 1133 933 q 1144 967 1144 951 q 1106 1000 1144 1000 l 772 1000 q 714 981 744 1000 q 667 933 683 961 l 590 800 q 544 753 575 772 q 485 733 513 733 l 318 733 q 260 714 290 733 q 214 667 229 694 l 60 400 q 49 367 49 382 q 88 333 49 333 l 254 333 q 304 310 304 333 q 301 300 304 304 l 13 -200 q -8 -275 -8 -236 q 0 -310 -8 -297 l 185 -624 q 204 -636 192 -636 q 249 -600 228 -636 l 768 300 q 854 333 788 333 l 1021 333 q 1079 353 1049 333 q 1126 400 1110 372 l 1281 667 z "},"°":{"ha":1146,"x_min":-10,"x_max":1154,"o":"m 182 1000 q 124 981 154 1000 q 76 933 93 961 l 0 800 q -10 767 -10 782 q 28 733 -10 733 l 961 733 q 1020 753 989 733 q 1067 800 1051 772 l 1143 933 q 1154 967 1154 951 q 1115 1000 1154 1000 l 182 1000 m 639 867 q 592 819 622 839 q 533 800 561 800 l 533 800 q 494 833 494 800 q 506 867 494 849 l 506 867 q 552 914 521 894 q 610 933 583 933 l 610 933 q 649 900 649 933 q 639 867 649 885 l 639 867 z "},"¢":{"ha":1146,"x_min":-10,"x_max":1424,"o":"m 1231 467 q 1290 486 1258 467 q 1336 533 1321 506 l 1413 667 q 1424 700 1424 685 q 1385 733 1424 733 l 971 733 q 931 776 957 733 l 747 1090 q 726 1103 739 1103 q 682 1067 703 1103 l 529 800 q 438 733 500 750 q 346 667 375 717 l 0 67 q -10 33 -10 49 q 28 0 -10 0 l 28 0 q 121 -43 94 0 l 306 -357 q 325 -369 313 -369 q 369 -333 349 -369 l 524 -67 q 569 -19 539 -39 q 628 0 600 0 l 961 0 q 1020 19 989 0 q 1067 67 1051 39 l 1221 333 q 1231 367 1231 351 q 1193 400 1231 400 l 860 400 q 801 381 832 400 q 754 333 769 361 l 639 133 q 592 86 622 106 q 533 67 561 67 l 533 67 q 494 100 494 67 q 506 133 494 115 l 775 600 q 822 647 790 628 q 879 667 853 667 l 879 667 q 918 633 918 667 q 908 600 918 618 l 869 533 q 860 500 860 515 q 897 467 860 467 l 1231 467 z "},"£":{"ha":1104,"x_min":4,"x_max":1022,"o":"m 833 357 q 813 369 825 369 q 769 333 790 369 l 653 133 q 606 86 638 106 q 549 67 575 67 l 549 67 q 510 100 510 67 q 519 133 510 115 l 900 792 q 917 856 917 821 q 908 893 917 879 l 724 1207 q 704 1219 717 1219 q 660 1183 681 1219 l 15 67 q 4 33 4 49 q 43 0 4 0 l 976 0 q 1022 28 1022 0 q 1018 43 1022 36 l 833 357 z "},"§":{"ha":1100,"x_min":-261,"x_max":1581,"o":"m 597 1000 q 539 981 569 1000 q 492 933 508 961 l 376 733 q 367 700 367 715 q 404 667 367 667 l 738 667 l 871 667 q 910 633 910 667 q 900 600 910 618 l 900 600 q 853 553 883 572 q 794 533 822 533 l 794 533 l 328 533 q 269 514 300 533 q 222 467 239 494 l 222 467 q 201 392 201 431 q 210 357 201 369 l 394 43 q 486 0 419 0 l 486 0 q 525 -33 525 0 q 515 -67 525 -49 l 399 -267 q 353 -314 383 -294 q 294 -333 322 -333 l 294 -333 q 256 -300 256 -333 q 265 -267 256 -285 l 304 -200 q 315 -167 315 -182 q 276 -133 315 -133 l -57 -133 q -115 -153 -85 -133 q -162 -200 -146 -172 l -258 -367 q -261 -376 -261 -371 q -211 -400 -261 -400 l 722 -400 q 781 -381 750 -400 q 828 -333 811 -361 l 1019 0 q 1031 33 1031 18 q 992 67 1031 67 l 525 67 q 475 90 475 67 q 511 124 475 111 q 564 133 539 133 l 564 133 l 1031 133 q 1089 153 1058 133 q 1135 200 1119 172 l 1135 200 l 1193 300 q 1186 376 1213 333 l 1003 690 q 910 733 976 733 l 910 733 q 871 767 871 733 q 882 800 871 782 l 921 867 q 967 914 936 894 q 1025 933 997 933 l 1025 933 q 1064 900 1064 933 q 1053 867 1064 888 q 1043 833 1043 846 q 1082 800 1043 800 l 1415 800 q 1521 867 1483 800 q 1581 976 1581 976 q 1531 1000 1581 1000 l 597 1000 m 785 400 l 688 233 q 601 200 668 200 l 601 200 q 551 224 551 200 q 554 233 551 229 l 651 400 q 697 447 667 428 q 756 467 728 467 l 756 467 q 794 433 794 467 q 785 400 794 418 l 785 400 z "},"•":{"ha":1146,"x_min":-10,"x_max":631,"o":"m 361 200 q 420 219 389 200 q 467 267 451 239 l 621 533 q 631 567 631 551 q 593 600 631 600 l 260 600 q 201 581 232 600 q 154 533 169 561 l 0 267 q -10 233 -10 249 q 28 200 -10 200 l 361 200 z "},"¶":{"ha":1146,"x_min":161,"x_max":1594,"o":"m 490 -874 q 510 -886 497 -886 q 554 -850 533 -886 l 1583 933 q 1594 967 1594 951 q 1556 1000 1594 1000 l 622 1000 q 564 981 594 1000 q 517 933 533 961 l 171 333 q 161 300 161 315 q 199 267 161 267 l 665 267 q 704 233 704 267 q 693 200 704 218 l 318 -450 q 297 -525 297 -486 q 306 -560 297 -547 l 490 -874 m 704 333 q 665 367 665 333 q 676 400 665 382 l 946 867 q 992 914 961 894 q 1050 933 1024 933 l 1050 933 q 1089 900 1089 933 q 1079 867 1089 885 l 810 400 q 763 353 793 372 q 704 333 732 333 z "},"´":{"ha":500,"x_min":422,"x_max":839,"o":"m 793 733 q 839 761 839 733 q 835 776 839 769 l 650 1090 q 629 1103 643 1103 q 586 1067 607 1103 l 432 800 q 422 767 422 782 q 460 733 422 733 l 793 733 z "},"¨":{"ha":1146,"x_min":-10,"x_max":1115,"o":"m 743 1000 q 685 981 717 1000 q 639 933 654 961 l 600 867 q 590 833 590 849 q 628 800 590 800 l 961 800 q 1020 819 989 800 q 1067 867 1051 839 l 1106 933 q 1115 967 1115 951 q 1076 1000 1115 1000 l 743 1000 m 0 867 q -10 833 -10 849 q 28 800 -10 800 l 361 800 q 420 819 389 800 q 467 867 451 839 l 506 933 q 515 967 515 951 q 476 1000 515 1000 l 143 1000 q 85 981 117 1000 q 39 933 54 961 l 0 867 z "},"Æ":{"ha":1146,"x_min":-10,"x_max":2024,"o":"m 1288 333 l 1754 333 q 1813 353 1782 333 q 1860 400 1843 372 l 2013 667 q 2024 700 2024 685 q 1985 733 2024 733 l 451 733 q 393 714 424 733 q 346 667 363 694 l 269 533 q 260 500 260 515 q 297 467 260 467 l 631 467 q 690 486 658 467 q 736 533 721 506 l 775 600 q 822 647 790 628 q 879 667 853 667 l 879 667 q 918 633 918 667 q 908 600 918 618 l 831 467 q 784 419 815 439 q 726 400 753 400 l 726 400 l 260 400 q 201 381 232 400 q 154 333 169 361 l 0 67 q -10 33 -10 49 q 28 0 -10 0 l 1561 0 q 1620 19 1589 0 q 1667 67 1651 39 l 1743 200 q 1754 233 1754 218 q 1715 267 1754 267 l 1382 267 q 1324 247 1354 267 q 1276 200 1293 228 l 1239 133 q 1192 86 1222 106 q 1133 67 1161 67 q 1094 100 1094 67 q 1106 133 1094 115 l 1182 267 q 1229 314 1199 294 q 1288 333 1260 333 m 639 133 q 592 86 622 106 q 533 67 561 67 l 533 67 q 494 100 494 67 q 506 133 494 115 l 582 267 q 629 314 599 294 q 688 333 660 333 l 688 333 q 726 300 726 333 q 715 267 726 285 l 639 133 m 1375 600 q 1422 647 1390 628 q 1479 667 1453 667 q 1518 633 1518 667 q 1508 600 1518 618 l 1431 467 q 1384 419 1415 439 q 1326 400 1353 400 q 1288 433 1288 400 q 1297 467 1288 449 l 1375 600 z "},"Ø":{"ha":1146,"x_min":0,"x_max":1433,"o":"m 461 733 q 403 714 435 733 q 357 667 372 694 l 10 67 q 0 33 0 49 q 39 0 0 0 l 972 0 q 1030 19 999 0 q 1076 67 1061 39 l 1424 667 q 1433 700 1433 685 q 1394 733 1433 733 l 461 733 m 649 133 q 602 86 633 106 q 543 67 571 67 l 543 67 q 506 100 506 67 q 515 133 506 115 l 592 267 q 639 314 608 294 q 697 333 669 333 l 697 333 q 736 300 736 333 q 725 267 736 285 l 649 133 m 842 467 q 794 419 825 439 q 736 400 764 400 l 736 400 q 697 433 697 400 q 708 467 697 449 l 785 600 q 831 647 800 628 q 890 667 863 667 l 890 667 q 928 633 928 667 q 918 600 928 618 l 842 467 z "},"±":{"ha":1146,"x_min":-10,"x_max":1654,"o":"m 1449 733 q 1411 767 1411 733 q 1421 800 1411 782 l 1421 800 l 1499 933 q 1508 967 1508 951 q 1469 1000 1508 1000 l 1136 1000 q 1078 981 1108 1000 q 1032 933 1047 961 l 954 800 q 908 753 939 772 q 849 733 876 733 l 682 733 q 624 714 656 733 q 578 667 593 694 l 424 400 q 413 367 413 382 q 451 333 413 333 l 618 333 q 657 300 657 333 q 646 267 657 285 l 550 100 q 547 90 547 96 q 597 67 547 67 l 931 67 q 1017 100 997 67 l 1113 267 q 1160 314 1129 294 q 1218 333 1190 333 l 1385 333 q 1443 353 1413 333 q 1490 400 1474 372 l 1644 667 q 1654 700 1654 685 q 1615 733 1654 733 l 1449 733 m 260 0 q 201 -19 232 0 q 154 -67 169 -39 l 0 -333 q -10 -367 -10 -351 q 28 -400 -10 -400 l 961 -400 q 1020 -381 989 -400 q 1067 -333 1051 -361 l 1221 -67 q 1231 -33 1231 -49 q 1193 0 1231 0 l 260 0 z "},"æ":{"ha":1728,"x_min":-7,"x_max":2026,"o":"m 1290 333 l 1757 333 q 1816 353 1785 333 q 1863 400 1847 372 l 2017 667 q 2026 700 2026 685 q 1989 733 2026 733 l 456 733 q 397 714 428 733 q 350 667 365 694 l 272 533 q 263 500 263 515 q 301 467 263 467 l 635 467 q 692 486 661 467 q 739 533 724 506 l 778 600 q 825 647 794 628 q 883 667 856 667 l 883 667 q 921 633 921 667 q 911 600 921 618 l 835 467 q 788 419 818 439 q 729 400 757 400 l 729 400 l 263 400 q 204 381 235 400 q 157 333 174 361 l 3 67 q -7 33 -7 49 q 32 0 -7 0 l 1565 0 q 1623 19 1592 0 q 1669 67 1654 39 l 1747 200 q 1757 233 1757 218 q 1719 267 1757 267 l 1386 267 q 1327 247 1358 267 q 1281 200 1296 228 l 1242 133 q 1195 86 1226 106 q 1136 67 1164 67 q 1099 100 1099 67 q 1108 133 1099 115 l 1186 267 q 1232 314 1201 294 q 1290 333 1263 333 m 642 133 q 595 86 626 106 q 536 67 564 67 l 536 67 q 499 100 499 67 q 508 133 499 115 l 586 267 q 632 314 601 294 q 690 333 663 333 l 690 333 q 729 300 729 333 q 719 267 729 285 l 642 133 m 1378 600 q 1425 647 1394 628 q 1483 667 1456 667 q 1521 633 1521 667 q 1511 600 1521 618 l 1435 467 q 1388 419 1418 439 q 1329 400 1357 400 q 1290 433 1290 400 q 1301 467 1290 449 l 1378 600 z "},"ø":{"ha":1118,"x_min":-14,"x_max":1419,"o":"m 449 733 q 390 714 421 733 q 343 667 358 694 l -4 67 q -14 33 -14 49 q 25 0 -14 0 l 958 0 q 1016 19 985 0 q 1063 67 1047 39 l 1410 667 q 1419 700 1419 685 q 1382 733 1419 733 l 449 733 m 635 133 q 588 86 619 106 q 529 67 557 67 l 529 67 q 492 100 492 67 q 501 133 492 115 l 579 267 q 625 314 594 294 q 683 333 656 333 l 683 333 q 722 300 722 333 q 713 267 722 285 l 635 133 m 828 467 q 781 419 811 439 q 722 400 750 400 l 722 400 q 683 433 683 400 q 694 467 683 449 l 771 600 q 818 647 788 628 q 876 667 849 667 l 876 667 q 914 633 914 667 q 904 600 914 618 l 828 467 z "},"¿":{"ha":1146,"x_min":-10,"x_max":1508,"o":"m 1315 867 q 1374 886 1343 867 q 1421 933 1406 906 l 1499 1067 q 1508 1100 1508 1085 q 1469 1133 1508 1133 l 1136 1133 q 1078 1114 1108 1133 q 1032 1067 1047 1094 l 954 933 q 944 900 944 915 q 982 867 944 867 l 1315 867 m 1221 67 q 1231 100 1231 85 q 1193 133 1231 133 l 860 133 q 801 114 832 133 q 754 67 769 94 l 639 -133 q 592 -181 622 -161 q 533 -200 561 -200 l 533 -200 q 494 -167 494 -200 q 506 -133 494 -151 l 697 200 q 744 247 714 228 q 803 267 775 267 l 969 267 q 1028 286 997 267 q 1075 333 1058 306 l 1267 667 q 1278 700 1278 685 q 1239 733 1278 733 l 906 733 q 847 714 878 733 q 800 667 817 694 l 724 533 q 676 486 707 506 q 618 467 646 467 l 451 467 q 393 447 424 467 q 346 400 363 428 l 0 -200 q -10 -233 -10 -218 q 28 -267 -10 -267 l 961 -267 q 1020 -247 989 -267 q 1067 -200 1051 -228 l 1221 67 z "},"¡":{"ha":1146,"x_min":-10,"x_max":1208,"o":"m 1199 1067 q 1208 1100 1208 1085 q 1169 1133 1208 1133 l 836 1133 q 778 1114 808 1133 q 732 1067 747 1094 l 654 933 q 644 900 644 915 q 682 867 644 867 l 1015 867 q 1074 886 1043 867 q 1121 933 1106 906 l 1199 1067 m 967 667 q 978 700 978 685 q 939 733 978 733 l 606 733 q 547 714 578 733 q 500 667 517 694 l 0 -200 q -10 -233 -10 -218 q 28 -267 -10 -267 l 361 -267 q 420 -247 389 -267 q 467 -200 451 -228 l 967 667 z "},"«":{"ha":1146,"x_min":-8,"x_max":1244,"o":"m 13 400 q -8 325 -8 364 q 0 290 -8 303 l 185 -24 q 204 -36 192 -36 q 249 0 228 -36 l 633 667 q 644 700 644 685 q 606 733 644 733 l 272 733 q 214 714 244 733 q 167 667 183 694 l 13 400 m 872 733 q 814 714 844 733 q 767 667 783 694 l 613 400 q 592 325 592 364 q 600 290 592 303 l 785 -24 q 804 -36 792 -36 q 849 0 828 -36 l 1233 667 q 1244 700 1244 685 q 1206 733 1244 733 l 872 733 z "},"»":{"ha":1146,"x_min":-10,"x_max":1242,"o":"m 1221 333 q 1242 408 1242 369 q 1233 443 1242 431 l 1049 757 q 1029 769 1042 769 q 985 733 1006 769 l 600 67 q 590 33 590 49 q 628 0 590 0 l 961 0 q 1020 19 989 0 q 1067 67 1051 39 l 1221 333 m 449 757 q 429 769 442 769 q 385 733 406 769 l 0 67 q -10 33 -10 49 q 28 0 -10 0 l 361 0 q 420 19 389 0 q 467 67 451 39 l 621 333 q 642 408 642 369 q 633 443 642 431 l 449 757 z "},"…":{"ha":1146,"x_min":-10,"x_max":1754,"o":"m 0 67 q -10 33 -10 49 q 28 0 -10 0 l 361 0 q 420 19 389 0 q 467 67 451 39 l 543 200 q 554 233 554 218 q 515 267 554 267 l 182 267 q 124 247 154 267 q 76 200 93 228 l 0 67 m 600 67 q 590 33 590 49 q 628 0 590 0 l 961 0 q 1020 19 989 0 q 1067 67 1051 39 l 1143 200 q 1154 233 1154 218 q 1115 267 1154 267 l 782 267 q 724 247 754 267 q 676 200 693 228 l 600 67 m 1382 267 q 1324 247 1354 267 q 1276 200 1293 228 l 1200 67 q 1190 33 1190 49 q 1228 0 1190 0 l 1561 0 q 1620 19 1589 0 q 1667 67 1651 39 l 1743 200 q 1754 233 1754 218 q 1715 267 1754 267 l 1382 267 z "}," ":{"ha":674,"x_min":0,"x_max":0,"o":""},"Œ":{"ha":1146,"x_min":-10,"x_max":2024,"o":"m 1288 333 l 1754 333 q 1813 353 1782 333 q 1860 400 1843 372 l 2013 667 q 2024 700 2024 685 q 1985 733 2024 733 l 451 733 q 393 714 424 733 q 346 667 363 694 l 269 533 q 260 500 260 515 q 297 467 260 467 l 631 467 q 690 486 658 467 q 736 533 721 506 l 775 600 q 822 647 790 628 q 879 667 853 667 l 879 667 q 918 633 918 667 q 908 600 918 618 l 831 467 q 784 419 815 439 q 726 400 753 400 l 726 400 l 260 400 q 201 381 232 400 q 154 333 169 361 l 0 67 q -10 33 -10 49 q 28 0 -10 0 l 1561 0 q 1620 19 1589 0 q 1667 67 1651 39 l 1743 200 q 1754 233 1754 218 q 1715 267 1754 267 l 1382 267 q 1324 247 1354 267 q 1276 200 1293 228 l 1239 133 q 1192 86 1222 106 q 1133 67 1161 67 q 1094 100 1094 67 q 1106 133 1094 115 l 1182 267 q 1229 314 1199 294 q 1288 333 1260 333 m 639 133 q 592 86 622 106 q 533 67 561 67 l 533 67 q 494 100 494 67 q 506 133 494 115 l 582 267 q 629 314 599 294 q 688 333 660 333 l 688 333 q 726 300 726 333 q 715 267 726 285 l 639 133 m 1375 600 q 1422 647 1390 628 q 1479 667 1453 667 q 1518 633 1518 667 q 1508 600 1518 618 l 1431 467 q 1384 419 1415 439 q 1326 400 1353 400 q 1288 433 1288 400 q 1297 467 1288 449 l 1375 600 z "},"œ":{"ha":1146,"x_min":-10,"x_max":2024,"o":"m 1288 333 l 1754 333 q 1813 353 1782 333 q 1860 400 1843 372 l 2013 667 q 2024 700 2024 685 q 1985 733 2024 733 l 451 733 q 393 714 424 733 q 346 667 363 694 l 269 533 q 260 500 260 515 q 297 467 260 467 l 631 467 q 690 486 658 467 q 736 533 721 506 l 775 600 q 822 647 790 628 q 879 667 853 667 l 879 667 q 918 633 918 667 q 908 600 918 618 l 831 467 q 784 419 815 439 q 726 400 753 400 l 726 400 l 260 400 q 201 381 232 400 q 154 333 169 361 l 0 67 q -10 33 -10 49 q 28 0 -10 0 l 1561 0 q 1620 19 1589 0 q 1667 67 1651 39 l 1743 200 q 1754 233 1754 218 q 1715 267 1754 267 l 1382 267 q 1324 247 1354 267 q 1276 200 1293 228 l 1239 133 q 1192 86 1222 106 q 1133 67 1161 67 q 1094 100 1094 67 q 1106 133 1094 115 l 1182 267 q 1229 314 1199 294 q 1288 333 1260 333 m 639 133 q 592 86 622 106 q 533 67 561 67 l 533 67 q 494 100 494 67 q 506 133 494 115 l 582 267 q 629 314 599 294 q 688 333 660 333 l 688 333 q 726 300 726 333 q 715 267 726 285 l 639 133 m 1375 600 q 1422 647 1390 628 q 1479 667 1453 667 q 1518 633 1518 667 q 1508 600 1518 618 l 1431 467 q 1384 419 1415 439 q 1326 400 1353 400 q 1288 433 1288 400 q 1297 467 1288 449 l 1375 600 z "},"“":{"ha":1146,"x_min":417,"x_max":1668,"o":"m 1658 1067 q 1668 1100 1668 1085 q 1631 1133 1668 1133 l 1297 1133 q 1238 1114 1269 1133 q 1192 1067 1207 1094 l 1038 800 q 1017 725 1017 764 q 1025 690 1017 703 l 1210 376 q 1229 364 1217 364 q 1274 400 1253 364 l 1658 1067 m 1058 1067 q 1068 1100 1068 1085 q 1031 1133 1068 1133 l 697 1133 q 638 1114 669 1133 q 592 1067 607 1094 l 438 800 q 417 725 417 764 q 425 690 417 703 l 610 376 q 629 364 617 364 q 674 400 653 364 l 1058 1067 z "},"”":{"ha":1146,"x_min":208,"x_max":1460,"o":"m 218 400 q 208 367 208 382 q 247 333 208 333 l 581 333 q 638 353 607 333 q 685 400 669 372 l 839 667 q 860 742 860 703 q 853 776 860 764 l 668 1090 q 647 1103 660 1103 q 604 1067 625 1103 l 218 400 m 1268 1090 q 1247 1103 1260 1103 q 1204 1067 1225 1103 l 818 400 q 808 367 808 382 q 847 333 808 333 l 1181 333 q 1238 353 1207 333 q 1285 400 1269 372 l 1439 667 q 1460 742 1460 703 q 1453 776 1460 764 l 1268 1090 z "},"‘":{"ha":1146,"x_min":-8,"x_max":644,"o":"m 633 1067 q 644 1100 644 1085 q 606 1133 644 1133 l 272 1133 q 214 1114 244 1133 q 167 1067 183 1094 l 13 800 q -8 725 -8 764 q 0 690 -8 703 l 185 376 q 204 364 192 364 q 249 400 228 364 l 633 1067 z "},"’":{"ha":1146,"x_min":-10,"x_max":642,"o":"m 449 1090 q 429 1103 442 1103 q 385 1067 406 1103 l 0 400 q -10 367 -10 382 q 28 333 -10 333 l 361 333 q 420 353 389 333 q 467 400 451 372 l 621 667 q 642 742 642 703 q 633 776 642 764 l 449 1090 z "},"÷":{"ha":1146,"x_min":-10,"x_max":1154,"o":"m 182 533 q 124 514 154 533 q 76 467 93 494 l 0 333 q -10 300 -10 315 q 28 267 -10 267 l 961 267 q 1020 286 989 267 q 1067 333 1051 306 l 1143 467 q 1154 500 1154 485 q 1115 533 1154 533 l 182 533 m 668 567 q 873 635 765 567 q 1036 800 981 703 q 1072 917 1072 863 q 1037 1001 1072 969 q 938 1033 1001 1033 q 733 965 840 1033 q 569 800 625 897 q 533 683 533 738 q 569 599 533 631 q 668 567 604 567 m 475 233 q 272 165 379 233 q 107 0 164 97 q 71 -117 71 -62 q 107 -201 71 -169 q 206 -233 143 -233 q 410 -165 303 -233 q 574 0 518 -97 q 610 117 610 63 q 574 201 610 169 q 475 233 539 233 z "},"‚":{"ha":1146,"x_min":-8,"x_max":644,"o":"m 633 333 q 644 367 644 351 q 606 400 644 400 l 272 400 q 214 381 244 400 q 167 333 183 361 l 13 67 q -8 -8 -8 31 q 0 -43 -8 -31 l 185 -357 q 204 -369 192 -369 q 249 -333 228 -369 l 633 333 z "},"„":{"ha":1146,"x_min":-8,"x_max":1244,"o":"m 633 333 q 644 367 644 351 q 606 400 644 400 l 272 400 q 214 381 244 400 q 167 333 183 361 l 13 67 q -8 -8 -8 31 q 0 -43 -8 -31 l 185 -357 q 204 -369 192 -369 q 249 -333 228 -369 l 633 333 m 1233 333 q 1244 367 1244 351 q 1206 400 1244 400 l 872 400 q 814 381 844 400 q 767 333 783 361 l 613 67 q 592 -8 592 31 q 600 -43 592 -31 l 785 -357 q 804 -369 792 -369 q 849 -333 828 -369 l 1233 333 z "},"‰":{"ha":1146,"x_min":0,"x_max":1676,"o":"m 404 1033 q 199 965 307 1033 q 36 800 92 897 q 0 683 0 738 q 35 599 0 631 q 135 567 71 567 q 340 635 232 567 q 503 800 447 703 q 539 917 539 863 q 503 1001 539 969 q 404 1033 468 1033 m 1008 233 q 805 165 913 233 q 640 0 697 97 q 604 -117 604 -62 q 640 -201 604 -169 q 739 -233 676 -233 q 944 -165 836 -233 q 1107 0 1051 -97 q 1143 117 1143 63 q 1108 201 1143 169 q 1008 233 1072 233 m 1542 233 q 1338 165 1446 233 q 1174 0 1231 97 q 1138 -117 1138 -62 q 1174 -201 1138 -169 q 1272 -233 1210 -233 q 1477 -165 1369 -233 q 1640 0 1585 -97 q 1676 117 1676 63 q 1641 201 1676 169 q 1542 233 1606 233 m 1032 792 q 1051 867 1051 828 q 1044 901 1051 889 l 860 1215 q 840 1228 853 1228 q 796 1192 817 1228 l 83 -42 q 63 -117 63 -76 q 71 -151 63 -137 l 256 -464 q 275 -478 263 -478 q 319 -442 299 -478 l 1032 792 z "},"¦":{"ha":1146,"x_min":-4,"x_max":956,"o":"m 6 67 q -4 33 -4 49 q 35 0 -4 0 l 368 0 q 426 19 396 0 q 472 67 457 39 l 626 333 q 638 367 638 351 q 599 400 638 400 l 265 400 q 207 381 238 400 q 160 333 176 361 l 6 67 m 675 533 q 734 553 703 533 q 781 600 765 572 l 935 867 q 956 942 956 903 q 947 976 956 964 l 763 1290 q 743 1303 756 1303 q 699 1267 719 1303 l 314 600 q 304 567 304 582 q 342 533 304 533 l 675 533 z "},"Ð":{"ha":1146,"x_min":-6,"x_max":1507,"o":"m 1314 1207 q 1293 1219 1306 1219 q 1250 1183 1271 1219 l 1182 1067 q 1135 1019 1167 1039 q 1078 1000 1104 1000 l 1078 1000 q 1019 981 1050 1000 q 972 933 988 961 l 972 933 q 961 900 961 915 q 1000 867 961 867 l 1000 867 q 1039 833 1039 867 q 1028 800 1039 818 l 1028 800 q 981 753 1013 772 q 924 733 950 733 l 924 733 l 457 733 q 398 714 429 733 q 351 667 367 694 l 6 67 q -6 33 -6 49 q 33 0 -6 0 l 967 0 q 1025 19 994 0 q 1072 67 1056 39 l 1490 792 q 1507 856 1507 821 q 1499 893 1507 879 l 1314 1207 m 643 133 q 597 86 628 106 q 539 67 565 67 l 539 67 q 500 100 500 67 q 510 133 500 115 l 779 600 q 826 647 796 628 q 885 667 857 667 l 885 667 q 924 633 924 667 q 913 600 924 618 l 643 133 z "},"ð":{"ha":1146,"x_min":-6,"x_max":1507,"o":"m 1314 1207 q 1293 1219 1306 1219 q 1250 1183 1271 1219 l 1182 1067 q 1135 1019 1167 1039 q 1078 1000 1104 1000 l 1078 1000 q 1019 981 1050 1000 q 972 933 988 961 l 972 933 q 961 900 961 915 q 1000 867 961 867 l 1000 867 q 1039 833 1039 867 q 1028 800 1039 818 l 1028 800 q 981 753 1013 772 q 924 733 950 733 l 924 733 l 457 733 q 398 714 429 733 q 351 667 367 694 l 6 67 q -6 33 -6 49 q 33 0 -6 0 l 967 0 q 1025 19 994 0 q 1072 67 1056 39 l 1490 792 q 1507 856 1507 821 q 1499 893 1507 879 l 1314 1207 m 643 133 q 597 86 628 106 q 539 67 565 67 l 539 67 q 500 100 500 67 q 510 133 500 115 l 779 600 q 826 647 796 628 q 885 667 857 667 l 885 667 q 924 633 924 667 q 913 600 924 618 l 643 133 z "},"Þ":{"ha":1146,"x_min":-8,"x_max":1503,"o":"m 999 733 q 957 765 957 733 q 965 792 957 778 q 982 856 982 821 q 974 893 982 879 l 789 1207 q 769 1219 782 1219 q 725 1183 746 1219 l 8 -58 q -8 -122 -8 -87 q 0 -160 -8 -146 l 185 -474 q 204 -486 192 -486 q 249 -450 228 -486 l 469 -67 q 517 -19 486 -39 q 575 0 547 0 l 1040 0 q 1099 19 1068 0 q 1146 67 1131 39 l 1493 667 q 1503 700 1503 685 q 1464 733 1503 733 l 999 733 m 614 67 q 575 100 575 67 q 586 133 575 115 l 856 600 q 901 647 871 628 q 960 667 932 667 q 997 633 997 667 q 988 600 997 618 l 718 133 q 671 86 701 106 q 614 67 640 67 z "},"þ":{"ha":1146,"x_min":-8,"x_max":1503,"o":"m 999 733 q 957 765 957 733 q 965 792 957 778 q 982 856 982 821 q 974 893 982 879 l 789 1207 q 769 1219 782 1219 q 725 1183 746 1219 l 8 -58 q -8 -122 -8 -87 q 0 -160 -8 -146 l 185 -474 q 204 -486 192 -486 q 249 -450 228 -486 l 469 -67 q 517 -19 486 -39 q 575 0 547 0 l 1040 0 q 1099 19 1068 0 q 1146 67 1131 39 l 1493 667 q 1503 700 1503 685 q 1464 733 1503 733 l 999 733 m 614 67 q 575 100 575 67 q 586 133 575 115 l 856 600 q 901 647 871 628 q 960 667 932 667 q 997 633 997 667 q 988 600 997 618 l 718 133 q 671 86 701 106 q 614 67 640 67 z "},"­":{"ha":1146,"x_min":18,"x_max":1182,"o":"m 210 400 q 151 381 182 400 q 104 333 121 361 l 28 200 q 18 167 18 182 q 56 133 18 133 l 989 133 q 1048 153 1017 133 q 1094 200 1079 172 l 1171 333 q 1182 367 1182 351 q 1143 400 1182 400 l 210 400 z "},"Ł":{"ha":1146,"x_min":1,"x_max":914,"o":"m 721 1207 q 701 1219 714 1219 q 657 1183 678 1219 l 590 1067 q 485 1000 561 1017 q 379 933 408 983 l 379 933 q 369 900 369 915 q 408 867 369 872 q 446 833 446 861 q 436 800 446 818 l 436 800 l 13 67 q 1 33 1 49 q 40 0 1 0 l 374 0 q 432 19 401 0 q 479 67 463 39 l 897 792 q 914 856 914 821 q 906 893 914 879 l 721 1207 z "},"ł":{"ha":1146,"x_min":1,"x_max":914,"o":"m 721 1207 q 701 1219 714 1219 q 657 1183 678 1219 l 590 1067 q 485 1000 561 1017 q 379 933 408 983 l 379 933 q 369 900 369 915 q 408 867 369 872 q 446 833 446 861 q 436 800 446 818 l 436 800 l 13 67 q 1 33 1 49 q 40 0 1 0 l 374 0 q 432 19 401 0 q 479 67 463 39 l 897 792 q 914 856 914 821 q 906 893 914 879 l 721 1207 z "}}}
